<svg width="127" height="46" viewBox="0 0 127 46" fill="none" xmlns="http://www.w3.org/2000/svg">
<path d="M5.33936 18.1538C7.81682 18.4956 15.057 18.0115 18.3674 17.7267C18.1965 18.4956 18.4386 22.3185 18.581 24.1339C17.1287 23.4505 16.4808 21.6422 16.3384 20.8235C15.3987 21.6778 14.8078 24.5255 14.6298 25.8425C14.6654 23.8136 14.3095 19.7556 12.6009 19.7556C10.4651 19.7556 7.68868 20.8235 6.83438 24.7746C5.98008 28.7258 6.19366 32.7837 10.038 35.2398C13.1135 37.2047 17.2995 34.1363 19.0081 32.3565C17.4704 36.5426 12.8857 37.3043 10.7855 37.162C11.9815 38.6997 15.7689 40.0808 17.5131 40.5791C7.68868 40.0452 5.33936 35.4534 3.3104 30.9683C1.68724 27.3802 3.55957 21.9982 4.69864 19.7556C2.56289 19.0722 0.676319 16.6944 0 15.5909C0.74751 16.3029 2.8619 17.8121 5.33936 18.1538Z" fill="white"/>
<path d="M25.9492 23.0661H20.9302V23.4932C21.2506 23.5644 21.9981 23.8776 22.4253 24.5611C22.9592 25.4154 22.6388 33.3176 22.6388 34.9194C22.6388 36.2009 21.4998 36.5212 20.9302 36.5212V36.9484H25.9492C25.8069 36.806 25.458 36.2009 25.2017 34.9194C24.9454 33.638 25.0237 31.3243 25.0949 30.3276C26.1984 30.1852 28.4908 30.0286 28.8325 30.5412C29.2596 31.1819 29.1528 33.9584 29.1528 34.8127C29.1528 35.4961 26.8747 38.1587 25.7357 39.4045C26.412 38.9062 27.9782 37.76 28.8325 37.162C29.6868 36.564 31.9649 36.7704 32.9972 36.9484V36.5212C31.9293 36.5212 31.2886 35.3466 31.2886 34.4923V25.8425C31.2886 23.8776 32.4277 23.4576 32.9972 23.4932V22.8525C32.4988 22.8169 31.2032 22.7671 30.0071 22.8525C28.8111 22.9379 28.4409 23.3152 28.4053 23.4932C29.4305 24.6038 29.3308 26.0205 29.1528 26.59H25.0949C25.0949 25.1377 25.6645 23.6356 25.9492 23.0661Z" fill="white"/>
<path d="M39.7248 22.8525L34.1719 22.1049L35.0262 22.5321C34.8553 22.6175 34.599 22.9948 34.4922 23.1728C35.7737 23.1728 35.9873 24.2407 35.6669 25.4153C35.3465 26.59 34.599 29.9004 36.9483 33.4244C39.2977 36.9484 42.0741 36.8416 43.7827 36.9484C45.1496 37.0338 45.8473 35.9161 46.0253 35.3466L44.5302 35.9873C44.2099 35.2398 44.2099 26.9104 44.2099 25.095C44.2099 23.2796 45.8117 23.3864 45.8117 23.1728C45.8117 23.002 45.4557 22.7457 45.2777 22.6389C45.9612 22.2972 46.844 21.1439 47.1999 20.6099C45.5767 21.6351 42.6793 22.4609 41.4334 22.7457C41.7538 23.2796 42.0741 24.6678 42.0741 25.4153V30.9683C42.0741 33.2749 41.3622 33.7803 41.0063 33.7447C38.0162 33.7447 37.4823 31.0751 37.2687 28.2986C37.0978 26.0774 38.8349 23.7423 39.7248 22.8525Z" fill="white"/>
<path d="M46.7728 29.6869C46.4311 26.8677 48.5526 24.5967 49.6561 23.8136C48.8018 23.3864 47.8051 22.2118 47.4136 21.6778C48.1255 21.9982 49.7202 22.6816 50.4036 22.8525C51.2579 23.0661 52.0054 22.6389 52.8597 22.6389C53.714 22.6389 54.6751 22.9593 55.6362 22.9593C56.405 22.9593 58.8754 21.9626 60.0144 21.4643C58.135 23.0874 57.3092 25.4866 57.1312 26.4833C56.8464 25.7358 55.9992 24.1767 54.8887 23.9204C53.5004 23.6 52.3258 24.5611 51.4715 26.2697C50.6172 27.9783 51.4715 31.3955 51.7918 32.2498C52.1122 33.1041 53.6072 35.5602 54.6751 35.5602C55.743 35.5602 55.743 34.9194 55.743 34.5423V30.648C55.743 29.7937 54.8887 29.4377 54.4615 29.3665L55.8497 29.1529C55.8497 27.7006 54.7819 26.9816 54.2479 26.8036C54.3547 26.768 54.6537 26.6968 54.9954 26.6968C55.4226 26.6968 56.5973 27.0172 57.1312 26.9104C57.5583 26.825 58.4482 26.8036 58.8398 26.8036C57.9001 27.3162 57.7363 28.5834 57.7719 29.1529L58.733 29.3665C57.8787 29.3665 57.5583 30.114 57.5583 30.648C57.5583 31.1819 57.4516 33.9584 57.7719 34.5991C58.0282 35.1117 59.089 36.0941 59.5873 36.5213C59.4164 36.7775 59.5161 37.1976 59.5873 37.3756C60.7833 41.3908 57.4516 44.4591 55.6362 45.4914C56.9888 43.7472 59.3737 39.853 58.0923 38.2299C56.4905 36.2009 56.2769 37.162 52.4326 36.628C48.5882 36.0941 47.2 33.2109 46.7728 29.6869Z" fill="white"/>
<path fill-rule="evenodd" clip-rule="evenodd" d="M68.6642 26.1628L70.1593 24.3475L71.2271 27.2307C71.3695 26.4476 71.6116 24.7746 71.4407 24.3475C71.2271 23.8135 71.5475 22.5321 72.4018 21.9981C73.0852 21.571 73.2561 21.0371 73.2561 20.8235C72.5442 21.2862 70.7359 22.2331 69.1982 22.3185L69.4117 22.9592C67.9523 22.5321 64.4568 22.3185 62.1502 24.8814C59.8436 27.4443 59.5517 28.2986 59.6941 28.4054C60.0145 28.0494 60.8901 27.4016 61.8299 27.6579C63.0045 27.9782 68.6642 29.6868 68.8778 32.5701C69.0914 35.4533 66.7421 35.6669 65.8878 35.133C65.2043 34.7058 64.6775 33.104 64.4995 32.3565V35.4533C63.4673 35.0618 61.061 33.8302 59.6941 32.0361C60.6552 33.8159 63.3462 37.2901 66.4217 36.9483C65.781 37.6959 64.3714 39.2763 63.8588 39.618V40.0452C64.9267 39.4401 67.1906 38.0589 67.7031 37.3755C68.0353 36.9327 68.5396 36.9202 69.0822 36.9069C69.5863 36.8945 70.1235 36.8812 70.5864 36.5212C71.5475 35.7737 73.8968 33.104 70.5864 29.9004C69.0421 28.4059 68.0091 27.8178 67.2922 27.4096C66.4723 26.9428 66.0658 26.7114 65.781 25.6289C65.247 23.6 68.3439 23.9203 68.6642 26.1628ZM62.6841 24.8814C63.1112 24.5967 64.1364 24.0271 64.8198 24.0271L64.2859 25.7357C63.8943 25.6645 63.0258 25.394 62.6841 24.8814Z" fill="white"/>
<path fill-rule="evenodd" clip-rule="evenodd" d="M122.408 26.1628L123.903 24.3475L124.971 27.2307C125.113 26.4476 125.356 24.7746 125.185 24.3475C124.971 23.8135 125.291 22.5321 126.146 21.9981C126.829 21.571 127 21.0371 127 20.8235C126.288 21.2862 124.48 22.2331 122.942 22.3185L123.156 22.9592C121.696 22.5321 118.201 22.3185 115.894 24.8814C113.588 27.4443 113.296 28.2986 113.438 28.4054C113.758 28.0494 114.634 27.4016 115.574 27.6579C116.748 27.9782 122.408 29.6868 122.622 32.5701C122.835 35.4533 120.486 35.6669 119.632 35.133C118.948 34.7058 118.421 33.104 118.243 32.3565V35.4533C117.211 35.0618 114.805 33.8302 113.438 32.0361C114.399 33.8159 117.09 37.2901 120.166 36.9483C119.525 37.6959 118.115 39.2763 117.603 39.618V40.0452C118.671 39.4401 120.935 38.0589 121.447 37.3755C121.779 36.9327 122.284 36.9202 122.826 36.9069C123.33 36.8945 123.867 36.8812 124.33 36.5212C125.291 35.7737 127.641 33.104 124.33 29.9004C122.786 28.4059 121.753 27.8178 121.036 27.4096C120.216 26.9428 119.81 26.7114 119.525 25.6289C118.991 23.6 122.088 23.9203 122.408 26.1628ZM116.428 24.8814C116.855 24.5967 117.881 24.0271 118.564 24.0271L118.03 25.7357C117.638 25.6645 116.77 25.394 116.428 24.8814Z" fill="white"/>
<path fill-rule="evenodd" clip-rule="evenodd" d="M73.5763 0C72.6509 1.10347 71.2057 4.42099 72.8288 8.86334C74.8578 14.4163 74.9646 18.581 73.8967 20.6099C74.395 20.5387 75.4772 20.3109 75.8189 19.9692C75.9257 20.8947 76.0324 22.9592 75.6053 23.8135C75.1529 24.7183 75.6971 25.3164 76.1986 25.8677C76.289 25.9671 76.378 26.065 76.4596 26.1629C76.9935 26.8036 76.8867 28.2986 74.751 30.3276C72.6153 32.3565 72.2949 34.4923 72.2949 37.1619H72.722C72.9 36.4144 73.4696 34.7699 74.3239 34.1719C75.3917 33.4244 76.78 34.599 76.9935 35.6669C77.0513 35.9556 77.109 36.299 77.171 36.6674C77.3382 37.6617 77.5362 38.8389 77.8478 39.618C78.275 40.6859 77.2071 44.1031 74.8578 45.3845C75.9969 45.3134 78.6594 44.573 80.1971 42.1809C82.0413 39.3122 81.4281 38.3111 81.0924 37.7631C81.0781 37.7399 81.0644 37.7175 81.0514 37.6959C80.7311 37.1619 80.3039 36.2009 80.7311 34.7058C81.0728 33.5098 80.5175 31.787 80.1971 31.0751C80.6243 31.1819 81.6281 31.31 82.2261 30.9683C81.9057 30.4699 81.2864 29.2597 81.3718 28.4054C81.4572 27.5511 81.621 26.2696 81.6922 25.7357L82.4397 25.8425C82.4753 25.2018 82.461 23.6427 82.1193 22.5321C81.7776 21.4215 81.7634 20.9303 81.799 20.8235C82.6177 20.7879 84.3832 20.6954 84.8958 20.6099C85.5365 20.5031 86.6044 21.0371 86.0704 23.066C86.9603 22.8881 89.0178 22.4253 90.1284 21.9982C91.2389 21.571 91.659 21.749 91.7302 21.8914L90.8759 28.619C91.0894 28.5122 91.5379 28.2132 91.6234 27.8715C92.1573 27.907 93.3106 28.0637 93.6523 28.4054V28.8325C92.5489 29.3309 90.1497 30.5838 89.3808 31.609V30.4343C88.6333 30.7903 87.0315 32.3352 86.6044 35.6669C86.4303 37.0248 86.154 38.0421 85.9311 38.8632C85.4702 40.5605 85.2369 41.4194 86.6044 42.7149C88.2275 44.2526 89.3453 44.8506 89.7012 44.9574C89.1317 43.9607 88.1635 41.5402 88.8469 39.8316C89.7012 37.6959 91.6234 35.4533 93.332 33.9583C94.1298 33.2602 94.3688 32.7484 94.5818 32.2924C94.8248 31.7718 95.034 31.3239 96.0017 30.7547C97.817 29.6868 99.5256 28.2986 99.6324 27.8715C98.7069 27.4087 96.8559 26.1201 96.8559 24.6678C96.8559 24.219 96.8298 23.6983 96.8018 23.1398C96.7165 21.4392 96.6136 19.3872 97.1763 17.9402C97.7743 16.4025 98.1374 14.4519 98.2442 13.6688C97.5679 14.6654 95.9589 16.7869 94.9338 17.2995C93.6523 17.9402 90.4487 18.7945 89.3808 18.3674C88.5265 18.0257 88.0994 17.7267 87.9926 17.6199C88.2418 16.9792 88.9537 15.6764 89.808 15.5909C89.8678 15.5849 89.9266 15.5793 89.9845 15.5737C90.9596 15.4801 91.6652 15.4124 92.3709 14.2027C92.7001 13.6383 93.34 12.9911 93.9987 12.3249C94.8356 11.4784 95.7029 10.6013 96.0017 9.82442C95.3609 9.9668 93.9513 10.038 93.4388 9.1837C93.3088 8.96708 93.1612 8.70212 92.9997 8.412C92.3648 7.27193 91.5135 5.74332 90.6623 5.23257C90.8403 6.05127 90.9827 7.92361 90.1284 8.86334C89.0605 10.038 86.7112 10.9991 83.6143 11.2127C83.5076 10.394 82.8455 8.60705 81.0514 8.00904L81.4786 10.2516C81.0514 10.2872 79.9622 10.0594 79.0225 8.86334C78.5803 8.30057 78.3046 7.87398 78.0985 7.5551C77.757 7.02686 77.6066 6.79418 77.2071 6.72759V9.29048C76.4952 8.68536 74.9219 7.1761 74.3239 5.98008C73.5763 4.48506 72.9356 2.24253 73.5763 0ZM78.3818 13.2416C79.592 13.4196 82.2261 13.6901 83.0804 13.3484C83.294 13.8111 83.6998 14.8434 83.6144 15.2705C84.0415 14.6654 85.5792 13.3911 88.313 13.1348C87.6723 14.6298 85.3657 17.6626 81.265 17.8334C81.3362 17.3351 81.3932 16.2103 81.0515 15.6977C80.8676 15.4218 80.4461 15.1063 79.9831 14.7598C79.3708 14.3015 78.6858 13.7889 78.3818 13.2416Z" fill="white"/>
<path d="M105.933 17.9402L98.2442 17.0859L99.7392 17.7267L98.5646 17.9402C98.6714 18.0114 99.0558 18.2606 99.7392 18.6877C100.594 19.2217 100.807 20.2895 100.38 22.1049C99.9528 23.9203 99.3121 25.9493 100.807 30.3275C102.302 34.7058 106.894 36.8416 110.632 36.8416C113.622 36.8416 114.298 35.4177 114.262 34.7058C113.835 35.0974 112.831 35.7523 112.233 35.2398C111.486 34.599 112.02 31.9293 112.02 30.7547C112.02 29.58 111.913 21.6778 112.02 20.2895C112.105 19.179 113.408 18.2606 114.049 17.9402H113.194C114.22 17.2568 115.615 15.7333 116.184 15.057C115.074 15.7404 111.735 16.6944 110.204 17.0859L110.418 17.7267L108.496 18.1538C109.35 19.2217 109.136 24.561 109.136 26.2696C109.136 27.9782 109.884 32.1429 107.641 32.5701C105.399 32.9972 103.156 31.8226 102.622 27.2307C102.195 23.5572 104.651 19.5064 105.933 17.9402Z" fill="white"/>
</svg>
