<svg width="512" height="512" viewBox="0 0 512 512" fill="none" xmlns="http://www.w3.org/2000/svg">
<path fill-rule="evenodd" clip-rule="evenodd" d="M256 0C323.895 0 389.01 26.9713 437.019 74.9807C485.029 122.99 512 188.105 512 256C512 323.895 485.029 389.01 437.019 437.019C389.01 485.029 323.895 512 256 512C188.105 512 122.99 485.029 74.9807 437.019C26.9713 389.01 0 323.895 0 256C0 188.105 26.9713 122.99 74.9807 74.9807C122.99 26.9713 188.105 0 256 0ZM246 144.9C171.6 144.9 113.6 191.8 113.6 250.1C113.6 305.1 166.9 340.2 249.5 338.5L252 338.4L261.1 338.1L258.8 344.1L259.1 344.7C259.759 346.243 260.359 347.811 260.9 349.4L261.1 350L261.4 351L261.8 352.4L262.1 353.3L262.5 354.3L262.8 355.4L263.2 357L263.7 358.7L264 359.8L264.5 361.6L265 363.5L265.4 365.4L265.9 367.4L266.3 368.8L266.8 371L267.3 373.2L268 376.2L268.3 377.8L268.8 380.2L269.3 382.7L269.9 385.3L270.6 389L271.2 392L272 396.2L272.4 398.3L273.1 401.6L273.7 405L274.5 409.6L275.4 414.4L276.2 419.4L277.1 424.5L278 429.7L278.9 435.1L279.8 440.7L280.5 445L281.6 452.3L282.1 455.3L283.3 463L284.2 469.3L285 474.1L285.9 480.7L286.4 484C341.3 476.7 390.1 450.1 425.7 411.2L426.8 410L421.7 391L408.2 340.5L399.8 309.1L392.4 281.5L387.8 264.7L384.9 254.1L383.2 247.7L381.6 242.1L381 239.7L380.6 238.4L380.4 237.7L380.2 237.1C372.4 212 357.3 189.8 336.7 173.7C312.5 154.8 281.8 144.9 246 144.9ZM180.6 411.8C174.1 410 167.3 413.8 165.4 420.3L165.3 420.6L154.1 462.2C161.103 465.665 168.279 468.769 175.6 471.5L177.3 472.2L189.4 427.1L189.5 426.8C191.1 420.2 187.2 413.5 180.6 411.8ZM250.3 381.3C243.7 379.5 236.9 383.3 235 389.8L234.9 390.1L217.9 453.1V453.4C217.241 456.526 217.804 459.786 219.474 462.509C221.143 465.233 223.792 467.214 226.876 468.046C229.961 468.878 233.247 468.498 236.059 466.983C238.872 465.468 240.998 462.933 242 459.9L242.1 459.6L259.1 396.6V396.3L259.4 394.9L259.5 394.4L259.1 392.3L258.5 389.4L258.1 387.6C257.305 386.068 256.202 384.718 254.859 383.634C253.517 382.549 251.965 381.755 250.3 381.3ZM131.8 316.4L131 318.3L130.9 318.7L113.9 381.7L113.8 382C113.042 385.157 113.543 388.485 115.195 391.279C116.847 394.074 119.522 396.116 122.653 396.973C125.784 397.831 129.126 397.436 131.972 395.874C134.818 394.311 136.944 391.702 137.9 388.6L138 388.3L153.4 331.1C145.4 326.9 138.1 321.9 131.8 316.4ZM91.3 243.9C84.7 242.2 77.9 246 76 252.4L75.9 252.7L58.9 315.7V316C58.1423 319.157 58.6426 322.485 60.2949 325.279C61.9472 328.074 64.622 330.116 67.7532 330.973C70.8844 331.831 74.2263 331.436 77.0719 329.874C79.9175 328.311 82.0435 325.702 83 322.6L83.1 322.3L100.1 259.3V259C101.7 252.4 97.8 245.7 91.3 243.9ZM472.4 229.6C465.9 227.9 459.1 231.7 457.2 238.1L457.1 238.4L440.1 301.4L440 301.7C439.125 304.909 439.56 308.334 441.211 311.223C442.861 314.111 445.591 316.225 448.8 317.1C452.009 317.975 455.435 317.54 458.323 315.889C461.211 314.239 463.325 311.509 464.2 308.3V308L481.3 245V244.6C482.9 238.1 479 231.4 472.4 229.6ZM54.2 145.5C39.9551 171.44 30.887 199.901 27.5 229.3C29.1405 231.158 31.3 232.481 33.7 233.1C40.2 234.8 47 231 48.9 224.6L49 224.3L66 161.3L66.1 161C67.7 154.4 63.8 147.7 57.2 145.9C56.2195 145.648 55.2124 145.513 54.2 145.5ZM429.4 145.9C422.8 144.2 416.1 148 414.1 154.4V154.7L397.1 217.7L397 218C396.242 221.157 396.743 224.485 398.395 227.279C400.047 230.074 402.722 232.116 405.853 232.973C408.984 233.831 412.326 233.436 415.172 231.874C418.018 230.311 420.144 227.702 421.1 224.6L421.2 224.3L438.2 161.3L438.3 161C439.9 154.4 435.9 147.7 429.4 145.9ZM113 94.5C114.9 88.1 121.7 84.3 128.2 86C134.8 87.8 138.7 94.5 137.1 101L137 101.4L120 164.4L119.9 164.7C118.944 167.802 116.818 170.411 113.972 171.974C111.126 173.536 107.784 173.931 104.653 173.073C101.522 172.216 98.8472 170.174 97.1949 167.379C95.5426 164.585 95.0423 161.257 95.8 158.1L95.9 157.8L112.9 94.8L113 94.5ZM331.4 106.4C333.3 100 340.1 96.2 346.7 97.9C353.2 99.7 357.1 106.4 355.5 113V113.3L342.1 162.8L341 161.9C334.357 157.02 327.297 152.737 319.9 149.1L331.3 106.7L331.4 106.4ZM211.7 30.3C219.569 28.7523 227.513 27.6175 235.5 26.9C235.894 28.7499 235.86 30.6654 235.4 32.5L235.3 32.8L218.3 95.8L218.2 96.1C217.198 99.1333 215.072 101.668 212.259 103.183C209.447 104.698 206.161 105.078 203.076 104.246C199.992 103.414 197.343 101.433 195.674 98.7094C194.004 95.9856 193.441 92.726 194.1 89.6L194.2 89.3L210 30.6L211.7 30.3ZM388.6 82.8L391.9 70.4L393.4 71.5C400.268 76.6305 406.844 82.139 413.1 88L412.7 89.3L412.6 89.6C411.598 92.6333 409.472 95.1676 406.659 96.6826C403.847 98.1976 400.561 98.5782 397.476 97.7463C394.392 96.9144 391.743 94.9332 390.074 92.2094C388.404 89.4856 387.841 86.226 388.5 83.1L388.6 82.8ZM287 51.3L293 29L294.8 29.3C302.413 30.584 309.956 32.2528 317.4 34.3L311.1 57.8L311 58.1C309.998 61.1333 307.872 63.6676 305.059 65.1826C302.247 66.6976 298.961 67.0782 295.876 66.2463C292.792 65.4144 290.143 63.4332 288.474 60.7094C286.804 57.9856 286.241 54.726 286.9 51.6L287 51.3Z" fill="black"/>
<path d="M262 187C266.243 187 270.313 188.686 273.314 191.686C276.314 194.687 278 198.757 278 203C278 207.243 276.314 211.313 273.314 214.314C270.313 217.314 266.243 219 262 219C257.757 219 253.687 217.314 250.686 214.314C247.686 211.313 246 207.243 246 203C246 198.757 247.686 194.687 250.686 191.686C253.687 188.686 257.757 187 262 187Z" fill="black"/>
</svg>
