<svg width="125" height="32" viewBox="0 0 125 32" fill="none" xmlns="http://www.w3.org/2000/svg">
<path d="M0 16.8741H14.0618V30.9359H0V16.8741Z" fill="white"/>
<path d="M16.8741 16.8741H30.9359V30.9359H16.8741V16.8741Z" fill="white"/>
<path d="M0 0H14.0618V14.0618H0V0Z" fill="white"/>
<path d="M16.8741 0H30.9359V14.0618H16.8741V0Z" fill="white"/>
<path d="M40.889 12.2172H37.2637V1.99043H40.919C41.9477 1.99043 42.8332 2.19517 43.5756 2.60464C44.3179 3.01078 44.8889 3.59502 45.2883 4.35736C45.6911 5.11971 45.8926 6.03186 45.8926 7.09382C45.8926 8.1591 45.6911 9.07458 45.2883 9.84026C44.8889 10.6059 44.3146 11.1935 43.5656 11.603C42.8199 12.0124 41.9277 12.2172 40.889 12.2172ZM39.4259 10.3646H40.7992C41.4383 10.3646 41.976 10.2514 42.4121 10.025C42.8515 9.79532 43.1811 9.44078 43.4008 8.9614C43.6238 8.47869 43.7353 7.85616 43.7353 7.09382C43.7353 6.33813 43.6238 5.7206 43.4008 5.24122C43.1811 4.76184 42.8532 4.40896 42.4171 4.18259C41.981 3.95622 41.4433 3.84303 40.8041 3.84303H39.4259V10.3646Z" fill="white"/>
<path d="M47.4942 12.2172V1.99043H49.6564V6.49959H49.7912L53.4715 1.99043H56.0631L52.268 6.5695L56.1081 12.2172H53.5214L50.72 8.01263L49.6564 9.31095V12.2172H47.4942Z" fill="white"/>
<path d="M60.4437 12.2172V1.99043H64.4785C65.2541 1.99043 65.9149 2.13857 66.4609 2.43486C67.0069 2.72781 67.423 3.13561 67.7093 3.65827C67.9989 4.1776 68.1437 4.77682 68.1437 5.45594C68.1437 6.13506 67.9972 6.73428 67.7043 7.25361C67.4113 7.77294 66.9869 8.17741 66.4309 8.46704C65.8783 8.75666 65.2092 8.90148 64.4235 8.90148H61.8519V7.16872H64.074C64.4901 7.16872 64.833 7.09715 65.1027 6.954C65.3756 6.80752 65.5787 6.60612 65.7119 6.34978C65.8484 6.09012 65.9166 5.79217 65.9166 5.45594C65.9166 5.11638 65.8484 4.8201 65.7119 4.56709C65.5787 4.31076 65.3756 4.11268 65.1027 3.97286C64.8297 3.82972 64.4835 3.75814 64.064 3.75814H62.6059V12.2172H60.4437Z" fill="white"/>
<path d="M69.5082 12.2172V4.54712H71.5705V5.88538H71.6504C71.7902 5.40933 72.0249 5.0498 72.3545 4.80678C72.6841 4.56044 73.0636 4.43726 73.493 4.43726C73.5996 4.43726 73.7144 4.44392 73.8376 4.45724C73.9608 4.47055 74.069 4.48886 74.1622 4.51216V6.39972C74.0623 6.36976 73.9241 6.34312 73.7477 6.31982C73.5713 6.29652 73.4098 6.28487 73.2633 6.28487C72.9504 6.28487 72.6708 6.35311 72.4244 6.4896C72.1814 6.62276 71.9883 6.80919 71.8452 7.04888C71.7053 7.28857 71.6354 7.56487 71.6354 7.8778V12.2172H69.5082Z" fill="white"/>
<path d="M78.3705 12.367C77.5948 12.367 76.924 12.2022 76.3581 11.8726C75.7955 11.5397 75.361 11.077 75.0548 10.4844C74.7485 9.88853 74.5954 9.19776 74.5954 8.41211C74.5954 7.6198 74.7485 6.92737 75.0548 6.3348C75.361 5.73891 75.7955 5.27617 76.3581 4.9466C76.924 4.6137 77.5948 4.44725 78.3705 4.44725C79.1461 4.44725 79.8153 4.6137 80.3779 4.9466C80.9438 5.27617 81.3799 5.73891 81.6862 6.3348C81.9924 6.92737 82.1456 7.6198 82.1456 8.41211C82.1456 9.19776 81.9924 9.88853 81.6862 10.4844C81.3799 11.077 80.9438 11.5397 80.3779 11.8726C79.8153 12.2022 79.1461 12.367 78.3705 12.367ZM78.3804 10.7191C78.7333 10.7191 79.0279 10.6192 79.2643 10.4195C79.5007 10.2164 79.6788 9.94013 79.7986 9.59058C79.9218 9.24103 79.9834 8.84322 79.9834 8.39713C79.9834 7.95104 79.9218 7.55322 79.7986 7.20368C79.6788 6.85413 79.5007 6.57782 79.2643 6.37475C79.0279 6.17168 78.7333 6.07014 78.3804 6.07014C78.0242 6.07014 77.7246 6.17168 77.4816 6.37475C77.2419 6.57782 77.0605 6.85413 76.9373 7.20368C76.8175 7.55322 76.7575 7.95104 76.7575 8.39713C76.7575 8.84322 76.8175 9.24103 76.9373 9.59058C77.0605 9.94013 77.2419 10.2164 77.4816 10.4195C77.7246 10.6192 78.0242 10.7191 78.3804 10.7191Z" fill="white"/>
<path d="M83.5288 4.54712H85.656V12.5967C85.656 13.1893 85.5395 13.6686 85.3065 14.0348C85.0734 14.401 84.7389 14.669 84.3028 14.8388C83.87 15.0086 83.3523 15.0935 82.7498 15.0935C82.6765 15.0935 82.6066 15.0918 82.5401 15.0885C82.4701 15.0885 82.3969 15.0868 82.3203 15.0835V13.4206C82.3769 13.4239 82.4269 13.4256 82.4701 13.4256C82.5101 13.4289 82.5534 13.4306 82.6 13.4306C82.9429 13.4306 83.1826 13.3574 83.319 13.2109C83.4589 13.0677 83.5288 12.8514 83.5288 12.5617V4.54712ZM84.5874 3.5584C84.2745 3.5584 84.0048 3.45354 83.7785 3.24381C83.5521 3.03075 83.4389 2.77608 83.4389 2.4798C83.4389 2.18684 83.5521 1.9355 83.7785 1.72578C84.0048 1.51272 84.2745 1.40619 84.5874 1.40619C84.907 1.40619 85.1783 1.51272 85.4013 1.72578C85.6277 1.9355 85.7409 2.18684 85.7409 2.4798C85.7409 2.77608 85.6277 3.03075 85.4013 3.24381C85.1783 3.45354 84.907 3.5584 84.5874 3.5584Z" fill="white"/>
<path d="M90.8555 12.367C90.0666 12.367 89.3874 12.2072 88.8182 11.8876C88.2522 11.5647 87.8161 11.1086 87.5099 10.5194C87.2036 9.92681 87.0505 9.22605 87.0505 8.4171C87.0505 7.62813 87.2036 6.93569 87.5099 6.3398C87.8161 5.7439 88.2472 5.2795 88.8032 4.9466C89.3625 4.6137 90.0183 4.44725 90.7706 4.44725C91.2766 4.44725 91.7477 4.52881 92.1838 4.69193C92.6232 4.85172 93.0061 5.09308 93.3323 5.41599C93.6619 5.73891 93.9182 6.14505 94.1013 6.63441C94.2844 7.12045 94.376 7.68971 94.376 8.3422V8.92644H87.8994V7.60815H92.3736C92.3736 7.30188 92.307 7.03057 92.1738 6.79421C92.0407 6.55785 91.8559 6.37309 91.6195 6.23992C91.3865 6.10344 91.1152 6.03519 90.8056 6.03519C90.4827 6.03519 90.1964 6.11009 89.9467 6.2599C89.7004 6.40638 89.5073 6.60445 89.3675 6.85413C89.2276 7.10048 89.1561 7.37512 89.1527 7.67806V8.93144C89.1527 9.31094 89.2226 9.63885 89.3625 9.91516C89.5056 10.1915 89.707 10.4045 89.9667 10.5543C90.2263 10.7041 90.5343 10.779 90.8905 10.779C91.1268 10.779 91.3432 10.7458 91.5396 10.6792C91.7361 10.6126 91.9042 10.5127 92.044 10.3796C92.1838 10.2464 92.2903 10.0833 92.3636 9.89019L94.331 10.02C94.2312 10.4927 94.0264 10.9055 93.7168 11.2584C93.4106 11.608 93.0144 11.8809 92.5284 12.0774C92.0457 12.2704 91.488 12.367 90.8555 12.367Z" fill="white"/>
<path d="M99.2297 12.367C98.444 12.367 97.7682 12.2005 97.2023 11.8676C96.6397 11.5314 96.2069 11.0653 95.904 10.4694C95.6044 9.87355 95.4546 9.18777 95.4546 8.41211C95.4546 7.62646 95.606 6.93735 95.909 6.34479C96.2152 5.74889 96.6497 5.2845 97.2123 4.95159C97.7749 4.61536 98.444 4.44725 99.2197 4.44725C99.8888 4.44725 100.475 4.56876 100.977 4.81178C101.48 5.05479 101.878 5.39602 102.171 5.83545C102.464 6.27488 102.625 6.79088 102.655 7.38344H100.648C100.591 7.00061 100.441 6.69267 100.198 6.45964C99.9587 6.22328 99.6441 6.1051 99.2546 6.1051C98.9251 6.1051 98.6371 6.19498 98.3908 6.37475C98.1477 6.55119 97.958 6.80919 97.8215 7.14875C97.685 7.48831 97.6168 7.89944 97.6168 8.38215C97.6168 8.87151 97.6833 9.28764 97.8165 9.63053C97.953 9.97342 98.1444 10.2347 98.3908 10.4145C98.6371 10.5943 98.9251 10.6842 99.2546 10.6842C99.4977 10.6842 99.7157 10.6342 99.9088 10.5344C100.105 10.4345 100.267 10.2897 100.393 10.0999C100.523 9.90684 100.608 9.67547 100.648 9.40582H102.655C102.622 9.99173 102.462 10.5077 102.176 10.9538C101.893 11.3966 101.502 11.7428 101.002 11.9925C100.503 12.2421 99.9121 12.367 99.2297 12.367Z" fill="white"/>
<path d="M108.097 4.54712V6.14505H103.478V4.54712H108.097ZM104.527 2.7095H106.654V9.86023C106.654 10.0566 106.684 10.2098 106.744 10.3196C106.804 10.4262 106.887 10.5011 106.993 10.5443C107.103 10.5876 107.23 10.6093 107.373 10.6093C107.473 10.6093 107.573 10.6009 107.672 10.5843C107.772 10.5643 107.849 10.5493 107.902 10.5394L108.237 12.1223C108.13 12.1556 107.98 12.1939 107.787 12.2372C107.594 12.2838 107.36 12.3121 107.083 12.322C106.571 12.342 106.121 12.2738 105.735 12.1173C105.352 11.9608 105.054 11.7178 104.841 11.3883C104.628 11.0587 104.523 10.6426 104.527 10.1399V2.7095Z" fill="white"/>
<path d="M37.2637 28.7168V18.4901H41.3584C42.1108 18.4901 42.7383 18.6016 43.241 18.8246C43.7437 19.0477 44.1215 19.3573 44.3745 19.7534C44.6275 20.1463 44.754 20.599 44.754 21.1117C44.754 21.5112 44.6741 21.8624 44.5143 22.1653C44.3545 22.4649 44.1348 22.7113 43.8552 22.9043C43.5789 23.0941 43.2626 23.2289 42.9064 23.3088V23.4087C43.2959 23.4253 43.6604 23.5352 44 23.7383C44.3429 23.9413 44.6209 24.226 44.8339 24.5922C45.047 24.955 45.1535 25.3878 45.1535 25.8905C45.1535 26.4331 45.0187 26.9175 44.749 27.3436C44.4827 27.7664 44.0882 28.1009 43.5656 28.3473C43.0429 28.5936 42.3987 28.7168 41.6331 28.7168H37.2637ZM39.4259 26.9491H41.1886C41.7912 26.9491 42.2306 26.8343 42.5069 26.6045C42.7832 26.3715 42.9214 26.0619 42.9214 25.6758C42.9214 25.3928 42.8532 25.1431 42.7167 24.9267C42.5802 24.7103 42.3854 24.5406 42.1324 24.4174C41.8827 24.2942 41.5848 24.2326 41.2386 24.2326H39.4259V26.9491ZM39.4259 22.7695H41.0289C41.3251 22.7695 41.5881 22.7179 41.8178 22.6147C42.0509 22.5082 42.234 22.3584 42.3671 22.1653C42.5036 21.9722 42.5719 21.7409 42.5719 21.4712C42.5719 21.1017 42.4404 20.8037 42.1774 20.5774C41.9177 20.351 41.5482 20.2378 41.0688 20.2378H39.4259V22.7695Z" fill="white"/>
<path d="M51.4391 25.451V21.0468H53.5664V28.7168H51.524V27.3236H51.4441C51.271 27.773 50.983 28.1342 50.5802 28.4072C50.1807 28.6802 49.693 28.8167 49.1171 28.8167C48.6045 28.8167 48.1534 28.7002 47.7639 28.4671C47.3744 28.2341 47.0698 27.9029 46.8501 27.4734C46.6337 27.044 46.5238 26.5296 46.5205 25.9304V21.0468H48.6477V25.5509C48.6511 26.0037 48.7726 26.3615 49.0123 26.6245C49.2519 26.8875 49.5732 27.019 49.976 27.019C50.2323 27.019 50.472 26.9608 50.6951 26.8442C50.9181 26.7244 51.0979 26.548 51.2344 26.3149C51.3742 26.0819 51.4424 25.7939 51.4391 25.451Z" fill="white"/>
<path d="M55.2679 28.7168V21.0468H57.3951V28.7168H55.2679ZM56.3365 20.058C56.0203 20.058 55.7489 19.9532 55.5226 19.7434C55.2995 19.5304 55.188 19.2757 55.188 18.9794C55.188 18.6865 55.2995 18.4351 55.5226 18.2254C55.7489 18.0124 56.0203 17.9058 56.3365 17.9058C56.6528 17.9058 56.9224 18.0124 57.1455 18.2254C57.3718 18.4351 57.485 18.6865 57.485 18.9794C57.485 19.2757 57.3718 19.5304 57.1455 19.7434C56.9224 19.9532 56.6528 20.058 56.3365 20.058Z" fill="white"/>
<path d="M61.2264 18.4901V28.7168H59.0992V18.4901H61.2264Z" fill="white"/>
<path d="M65.7568 28.8417C65.1742 28.8417 64.6466 28.6918 64.1739 28.3922C63.7045 28.0893 63.3316 27.6449 63.0553 27.059C62.7823 26.4697 62.6458 25.7473 62.6458 24.8918C62.6458 24.0129 62.7873 23.2822 63.0703 22.6996C63.3533 22.1137 63.7294 21.6759 64.1988 21.3863C64.6715 21.0934 65.1892 20.9469 65.7518 20.9469C66.1813 20.9469 66.5391 21.0201 66.8254 21.1666C67.115 21.3097 67.3481 21.4895 67.5245 21.7059C67.7043 21.919 67.8408 22.1287 67.934 22.3351H67.9989V18.4901H70.1212V28.7168H68.0239V27.4884H67.934C67.8341 27.7015 67.6926 27.9129 67.5095 28.1226C67.3298 28.329 67.0951 28.5004 66.8054 28.6369C66.5192 28.7734 66.1696 28.8417 65.7568 28.8417ZM66.4309 27.1488C66.7738 27.1488 67.0634 27.0556 67.2998 26.8692C67.5395 26.6795 67.7226 26.4148 67.8491 26.0752C67.9789 25.7357 68.0438 25.3379 68.0438 24.8818C68.0438 24.4257 67.9806 24.0296 67.8541 23.6933C67.7276 23.3571 67.5445 23.0974 67.3048 22.9143C67.0651 22.7312 66.7738 22.6397 66.4309 22.6397C66.0814 22.6397 65.7868 22.7346 65.5471 22.9243C65.3074 23.1141 65.126 23.3771 65.0028 23.7133C64.8796 24.0495 64.818 24.439 64.818 24.8818C64.818 25.3279 64.8796 25.7224 65.0028 26.0652C65.1293 26.4048 65.3107 26.6711 65.5471 26.8642C65.7868 27.054 66.0814 27.1488 66.4309 27.1488Z" fill="white"/>
<path d="M71.8701 28.7168V21.0468H73.9974V28.7168H71.8701ZM72.9387 20.058C72.6225 20.058 72.3512 19.9532 72.1248 19.7434C71.9018 19.5304 71.7902 19.2757 71.7902 18.9794C71.7902 18.6865 71.9018 18.4351 72.1248 18.2254C72.3512 18.0124 72.6225 17.9058 72.9387 17.9058C73.255 17.9058 73.5247 18.0124 73.7477 18.2254C73.9741 18.4351 74.0873 18.6865 74.0873 18.9794C74.0873 19.2757 73.9741 19.5304 73.7477 19.7434C73.5247 19.9532 73.255 20.058 72.9387 20.058Z" fill="white"/>
<path d="M77.8287 24.2826V28.7168H75.7014V21.0468H77.7288V22.4H77.8187C77.9885 21.9539 78.2731 21.601 78.6726 21.3414C79.072 21.0784 79.5564 20.9469 80.1257 20.9469C80.6583 20.9469 81.1227 21.0634 81.5189 21.2964C81.915 21.5295 82.223 21.8624 82.4427 22.2951C82.6624 22.7246 82.7723 23.2372 82.7723 23.8331V28.7168H80.645V24.2126C80.6483 23.7433 80.5285 23.3771 80.2855 23.1141C80.0425 22.8478 79.7079 22.7146 79.2818 22.7146C78.9955 22.7146 78.7425 22.7762 78.5228 22.8994C78.3064 23.0225 78.1366 23.2023 78.0134 23.4387C77.8936 23.6717 77.832 23.953 77.8287 24.2826Z" fill="white"/>
<path d="M87.9044 31.7529C87.2152 31.7529 86.6243 31.658 86.1317 31.4682C85.6423 31.2818 85.2528 31.0272 84.9632 30.7042C84.6735 30.3813 84.4854 30.0185 84.3989 29.6156L86.3663 29.351C86.4263 29.5041 86.5211 29.6473 86.651 29.7804C86.7808 29.9136 86.9523 30.0201 87.1653 30.1C87.3817 30.1832 87.6447 30.2249 87.9543 30.2249C88.417 30.2249 88.7982 30.1117 89.0978 29.8853C89.4007 29.6623 89.5522 29.2877 89.5522 28.7618V27.3586H89.4623C89.3691 27.5716 89.2293 27.773 89.0429 27.9628C88.8565 28.1525 88.6168 28.3073 88.3238 28.4272C88.0309 28.547 87.6813 28.607 87.2752 28.607C86.6992 28.607 86.1749 28.4738 85.7022 28.2075C85.2328 27.9378 84.8583 27.5267 84.5787 26.9741C84.3024 26.4181 84.1642 25.7157 84.1642 24.8668C84.1642 23.9979 84.3057 23.2722 84.5886 22.6896C84.8716 22.107 85.2478 21.6709 85.7172 21.3813C86.1899 21.0917 86.7076 20.9469 87.2702 20.9469C87.6996 20.9469 88.0592 21.0201 88.3488 21.1666C88.6384 21.3097 88.8714 21.4895 89.0479 21.7059C89.2276 21.919 89.3658 22.1287 89.4623 22.3351H89.5422V21.0468H91.6545V28.7917C91.6545 29.4442 91.4947 29.9902 91.1751 30.4296C90.8555 30.869 90.4128 31.1986 89.8468 31.4183C89.2842 31.6414 88.6367 31.7529 87.9044 31.7529ZM87.9493 27.009C88.2922 27.009 88.5818 26.9241 88.8182 26.7544C89.0579 26.5812 89.241 26.3349 89.3675 26.0153C89.4973 25.6924 89.5622 25.3062 89.5622 24.8568C89.5622 24.4074 89.499 24.0179 89.3725 23.6883C89.2459 23.3554 89.0629 23.0974 88.8232 22.9143C88.5835 22.7312 88.2922 22.6397 87.9493 22.6397C87.5998 22.6397 87.3051 22.7346 87.0654 22.9243C86.8258 23.1107 86.6443 23.3704 86.5211 23.7033C86.398 24.0362 86.3364 24.4207 86.3364 24.8568C86.3364 25.2996 86.398 25.6824 86.5211 26.0053C86.6476 26.3249 86.8291 26.5729 87.0654 26.7494C87.3051 26.9225 87.5998 27.009 87.9493 27.009Z" fill="white"/>
<path d="M95.6593 27.3186L95.6044 27.8679C95.5611 28.3073 95.4779 28.7451 95.3547 29.1812C95.2349 29.6206 95.1084 30.0185 94.9752 30.3747C94.8454 30.7309 94.7405 31.0105 94.6606 31.2136H93.2824C93.3323 31.0172 93.4006 30.7425 93.4871 30.3896C93.5737 30.0401 93.6552 29.6473 93.7318 29.2112C93.8084 28.7751 93.8566 28.3306 93.8766 27.8779L93.9016 27.3186H95.6593Z" fill="white"/>
<path d="M100.418 28.7168V18.4901H102.58V26.9341H106.965V28.7168H100.418Z" fill="white"/>
<path d="M108.397 28.7168V18.4901H110.559V26.9341H114.943V28.7168H108.397Z" fill="white"/>
<path d="M125 22.0704H122.813C122.773 21.7875 122.691 21.5361 122.568 21.3164C122.445 21.0934 122.287 20.9036 122.094 20.7471C121.901 20.5907 121.678 20.4708 121.425 20.3876C121.175 20.3044 120.904 20.2628 120.611 20.2628C120.081 20.2628 119.62 20.3943 119.228 20.6573C118.835 20.9169 118.53 21.2964 118.314 21.7958C118.097 22.2918 117.989 22.8944 117.989 23.6034C117.989 24.3325 118.097 24.945 118.314 25.4411C118.533 25.9371 118.84 26.3116 119.233 26.5646C119.625 26.8176 120.08 26.9441 120.596 26.9441C120.885 26.9441 121.153 26.9058 121.4 26.8293C121.649 26.7527 121.871 26.6412 122.064 26.4947C122.257 26.3449 122.417 26.1635 122.543 25.9504C122.673 25.7373 122.763 25.4943 122.813 25.2213L125 25.2313C124.943 25.7007 124.802 26.1535 124.576 26.5896C124.353 27.0223 124.051 27.4102 123.672 27.7531C123.296 28.0926 122.846 28.3623 122.323 28.562C121.804 28.7584 121.217 28.8566 120.561 28.8566C119.649 28.8566 118.833 28.6502 118.114 28.2374C117.398 27.8246 116.832 27.2271 116.416 26.4448C116.003 25.6624 115.797 24.7153 115.797 23.6034C115.797 22.4882 116.007 21.5394 116.426 20.7571C116.846 19.9748 117.415 19.3789 118.134 18.9694C118.853 18.5566 119.662 18.3502 120.561 18.3502C121.153 18.3502 121.703 18.4335 122.209 18.5999C122.718 18.7664 123.169 19.0094 123.562 19.329C123.955 19.6452 124.274 20.0331 124.521 20.4925C124.77 20.9519 124.93 21.4779 125 22.0704Z" fill="white"/>
</svg>
