<svg width="99" height="48" viewBox="0 0 99 48" fill="none" xmlns="http://www.w3.org/2000/svg">
<path fill-rule="evenodd" clip-rule="evenodd" d="M13.2091 36.9207C14.2348 36.1103 15.3089 35.2814 16.3485 34.4128C16.5768 34.2218 16.8256 33.8512 16.7976 33.5918C16.5358 31.1583 17.1938 28.8949 17.9685 26.6379C19.4142 22.4274 21.7841 18.8295 25.1911 15.9444C26.2925 15.0114 27.5174 14.2217 28.7038 13.3904C29.2631 12.9989 29.6844 13.2287 29.9946 13.7804C30.4767 14.6367 30.6238 15.5597 30.2508 16.4534C29.1369 19.1204 28.1578 21.8718 26.7512 24.3831C25.1784 27.1926 23.1987 29.7781 21.3857 32.4528C21.2111 32.7077 20.9985 32.9345 20.7553 33.1255C20.1565 33.5963 20.1835 34.1103 20.6184 34.6443C21.0905 35.2244 21.6094 34.841 21.8898 34.5091C22.8585 33.3593 23.7764 32.168 24.641 30.9385C25.1864 30.1669 25.6048 29.3063 26.1468 28.3681C26.9247 29.3352 27.0213 30.3617 26.7491 31.3292C26.0519 33.802 24.8594 36.0248 22.8013 37.6644C21.4273 38.759 19.5183 38.4326 18.2471 36.9694C18.0083 36.6933 17.789 36.4015 17.6275 36.2018C15.8415 37.4898 14.1078 38.7417 12.3601 40.0019C13.4241 39.9549 14.5127 39.9493 15.1114 41.1865C15.6266 42.2499 15.7779 43.2814 15.1123 44.5884C15.7286 44.5576 16.1637 44.5731 16.5857 44.509C19.3644 44.0794 21.4751 42.4477 23.3795 40.572C26.0167 37.972 27.6046 34.675 29.1623 31.3872C31.6944 26.0395 34.1255 20.6434 36.7178 15.3261C38.2783 12.1254 40.1983 9.13514 43.0812 6.89171C45.7009 4.85308 48.6813 3.88132 51.9947 4.0717C55.0125 4.24388 57.2558 7.01741 57.145 10.1358C57.0065 14.0439 55.2695 17.0028 52.0285 19.1433C51.9508 19.1942 51.8697 19.2413 51.8867 19.2293C52.2989 20.5848 52.8319 21.8187 53.0348 23.1024C53.6649 27.1025 51.1531 33.0699 46.0951 34.9184C45.4227 35.1649 45.2941 35.4812 45.5604 36.085C45.9209 36.8984 46.2643 37.7192 46.5905 38.5468C46.7209 38.8791 46.7763 39.2408 46.8787 39.6394C45.7088 39.9101 45.0054 39.302 44.4691 38.5407C43.9949 37.8669 43.6655 37.0895 43.2993 36.3445C43.0574 35.8513 42.8215 35.565 42.1409 35.541C39.6421 35.4496 37.5552 34.5013 36.3072 32.2174C35.8633 31.4054 35.5274 30.5305 35.8541 29.5607C36.3899 27.9673 37.975 27.2028 39.7849 27.7166C41.6207 28.239 42.9285 29.3937 43.7375 31.1107C43.8668 31.3859 44.0099 31.6547 44.1464 31.9244C48.1319 30.0563 51.4827 24.3182 49.2882 20.5802C48.1591 20.724 47.0078 20.9032 45.8505 21.0084C44.7915 21.106 43.7881 20.9045 43.0878 20.0193C41.8725 18.4844 42.5125 16.7224 44.5167 16.1867C45.8578 15.8265 47.2283 15.7922 48.5056 16.4647C49.2327 16.8475 49.8015 16.8088 50.3821 16.1816C51.9327 14.5034 53.1393 12.6335 53.7122 10.4125C54.0858 8.96288 53.263 7.85778 51.7569 7.67111C50.3164 7.49337 49.0894 8.06785 47.8998 8.7568C45.687 10.0377 43.9919 11.8814 42.7106 14.0202C41.0837 16.7366 39.606 19.5487 38.1998 22.3866C35.8205 27.188 33.6854 32.1082 30.7479 36.6216C28.7409 39.7066 26.5813 42.651 23.5414 44.8352C21.7545 46.1176 19.7345 46.8778 17.6015 47.3619C16.9316 47.514 16.2199 47.8575 15.5928 47.746C13.9139 47.4513 12.254 46.9649 11.1188 45.5467C9.63 43.6905 9.91407 41.7976 12.0609 40.0229C11.7014 40.0894 11.5112 40.0833 11.3648 40.1589C10.0033 40.8596 8.51337 41.0904 7.04883 40.9097C6.09447 40.7912 5.06565 40.6707 4.28365 40.0725C3.36175 39.9237 2.49168 38.6573 2.47466 38.6328C1.11805 36.5166 0.257136 34.3509 1.03147 31.7776C1.86332 29.0101 3.30931 26.6563 5.55731 24.8217C5.94212 24.5064 6.54139 24.4577 6.94236 24.1557C7.40535 23.8056 8.17498 23.0507 8.09401 22.9209C6.32841 20.1211 5.76164 17.1856 7.18173 14.1372C8.50795 11.2893 10.8917 9.42288 13.9298 8.79692C16.5116 8.26381 19.2048 8.25004 21.8544 8.06186C24.6266 7.86715 27.4106 7.81197 30.1738 7.53202C30.9191 7.45637 31.6771 6.87077 32.2934 6.35707C32.9566 5.80348 32.7272 5.17467 31.967 4.5848C31.8647 4.90033 31.8435 5.09202 31.7492 5.23822C31.0895 6.25602 30.222 6.87821 29.0383 5.79653C27.3543 4.2552 27.7133 1.81254 29.6583 0.646527C30.7909 -0.0297624 31.5371 0.173488 32.506 0.879156C34.6075 2.40687 35.229 4.49495 34.2265 6.88209C32.6884 10.5435 29.6911 12.1188 25.9823 12.7676C22.8807 13.3098 19.7632 13.2351 16.6365 13.1501C13.8006 13.0719 11.3021 13.8359 9.54881 16.2388C8.34766 17.886 8.52325 19.7778 9.9533 21.1786C10.4728 21.689 10.9783 21.7509 11.708 21.6237C13.28 21.3504 14.8828 21.2121 16.4787 21.1206C17.3614 21.0713 17.8306 21.6524 18.1095 22.4912C18.403 23.3788 18.0382 23.9394 17.3858 24.3864C16.1055 25.2599 14.6316 25.6818 13.1484 25.2866C11.3639 24.8105 10.0404 25.4909 8.86876 26.5955C6.99518 28.3648 5.80392 30.553 5.46086 33.1137C5.02444 36.3765 7.4931 38.0082 10.204 37.6876C10.6895 37.6296 11.165 37.4863 11.6496 37.4096C11.732 37.3959 11.8385 37.3867 11.9335 37.3924C12.172 37.3506 12.5772 37.2333 13.2091 36.9207ZM19.3937 30.3669C19.3937 30.3669 22.5972 20.5818 26.749 17.88C30.9012 15.1778 19.3937 30.3669 19.3937 30.3669ZM38.4762 29.8384C38.4762 29.8384 38.1763 33.0929 41.3198 33.4853C44.4629 33.8781 38.4762 29.8384 38.4762 29.8384ZM95.5923 24.9606C96.3948 24.205 97.0217 23.6128 97.6518 23.0187C98.9122 24.1871 98.1214 26.588 96.6796 27.3443C94.9671 28.2416 93.7903 29.5324 92.6189 30.9646C91.9562 31.7756 91.0648 32.4481 90.1696 33.0158C88.3175 34.19 86.6133 33.5704 85.7724 31.5265C85.6373 31.1979 85.4965 30.873 85.3616 30.5562C84.443 31.3071 83.6369 32.0496 82.7459 32.6719C82.0085 33.1872 81.1133 33.3911 80.3151 32.8244C79.5256 32.2623 79.189 31.3669 79.3863 30.4463C79.5914 29.4964 79.9554 28.5643 80.3721 27.6803C80.7634 26.8473 81.2904 26.073 81.8029 25.304C82.0752 24.8952 82.2597 24.5837 81.7387 24.2291C81.2385 23.8902 81.0562 24.1994 80.7943 24.5549C79.4042 26.4374 78.1017 28.403 76.5466 30.1429C75.3705 31.459 73.935 32.5868 72.4759 33.5991C71.1307 34.5339 70.0003 33.9583 69.9311 32.3022C69.881 31.1048 70.1244 29.8564 70.4591 28.6929C70.7884 27.5499 71.4264 26.4964 71.8581 25.3776C71.96 25.1132 71.7745 24.7396 71.7213 24.4173C71.4605 24.551 71.1096 24.6184 70.9515 24.8293C69.9164 26.2086 68.941 27.6292 67.9134 29.0138C66.5695 30.8246 65.2022 32.6315 62.9751 33.4659C61.3979 34.0564 61.1465 33.9487 60.2286 32.5593C60.1281 32.4057 60.0012 32.2721 59.9274 32.1807C58.9605 32.7544 58.0758 33.4195 57.0838 33.8292C55.9833 34.283 55.2072 33.8147 54.7829 32.6781C54.6444 32.3073 54.5551 31.9173 54.4194 31.4549C53.2689 32.2658 52.1602 33.0452 51.0647 33.8163C50.2036 32.8794 50.1968 32.7567 51.0066 32.0648C51.5943 31.5631 52.2392 31.1226 52.7953 30.5907C53.3006 30.106 53.9788 29.8427 54.356 29.1765C54.7637 28.4581 55.371 27.8535 55.821 27.1538C56.9695 25.3671 58.0799 23.5564 59.204 21.752C59.5541 21.1925 60.878 20.8275 61.3998 21.2901C61.9498 21.7792 61.748 22.4271 61.3844 23.0289C60.2044 24.9813 59.0368 26.9395 57.9007 28.9175C57.5952 29.4505 57.4228 30.0575 57.1897 30.6294C57.2786 30.6956 57.3667 30.7618 57.4557 30.827C57.6806 30.7133 57.9216 30.6247 58.1288 30.485C59.7078 29.421 60.7762 27.916 61.7771 26.343C62.8512 24.6565 63.9642 22.9955 65.1285 21.2179C65.652 21.6213 66.217 21.8768 66.4762 22.3102C66.7153 22.7098 66.8536 23.4371 66.6437 23.7911C65.3901 25.9078 64.0163 27.9532 62.705 30.0373C62.5393 30.3011 62.51 30.65 62.4185 30.9581C62.7529 30.9214 63.196 31.0078 63.4064 30.8273C64.5687 29.8283 65.8087 28.8702 66.7671 27.6947C67.9527 26.2408 68.9088 24.6011 69.9136 23.0097C70.1072 22.7052 70.1693 22.2424 70.1202 21.8743C69.8835 20.1111 70.752 18.8684 71.9761 17.7745C72.4314 17.3691 72.8332 17.5238 72.9666 18.033C73.1651 18.7926 73.2127 19.5903 73.3638 20.3645C73.4498 20.8107 73.5205 21.3054 73.7655 21.6654C74.1201 22.1851 74.6681 22.573 75.0578 23.0739C75.4637 23.5955 75.683 24.1634 75.3096 24.8597C74.4506 26.458 73.6442 28.0818 72.8368 29.7061C72.744 29.8907 72.7871 30.1419 72.7676 30.3626C72.9936 30.3531 73.2727 30.4245 73.4356 30.3191C73.9504 29.9871 74.5296 29.6693 74.8927 29.2017C76.3643 27.303 77.7637 25.3457 79.1939 23.4139C79.567 22.9104 79.6385 22.4468 79.4173 21.7956C78.7703 19.8954 79.8431 17.8838 81.7232 17.1369C82.2266 16.9377 82.5875 17.0537 82.6751 17.4874C82.8149 18.186 82.9906 18.9745 82.7907 19.6149C82.552 20.3814 82.7598 20.6619 83.3365 21.0941C84.0256 21.6123 84.694 22.2567 85.1264 22.9881C85.644 23.8662 85.063 24.705 84.5712 25.462C83.8004 26.6484 82.9673 27.7968 82.2532 29.0154C82.0199 29.4141 82.0755 29.9808 82.0001 30.4703C82.4942 30.3106 83.1498 30.2932 83.4528 29.9596C84.4356 28.876 85.4246 27.755 86.1624 26.5038C87.3504 24.4884 88.479 22.4769 90.788 21.5271C93.0437 20.5975 94.7648 21.5476 95.2525 23.9528C95.2998 24.1834 95.4026 24.4042 95.5923 24.9606ZM90.8622 24.5506C90.397 25.0701 89.9056 25.5398 89.5077 26.0786C88.6416 27.2493 87.8627 28.4805 87.7409 29.9825C87.6554 31.0422 88.0785 31.4039 89.0894 31.2115C90.1097 31.0163 92.0974 28.7351 92.1235 27.7114C92.1265 27.5664 92.0626 27.4124 92.0042 27.2716C91.643 26.4003 91.2749 25.5299 90.8622 24.5506Z" fill="white"/>
</svg>
