<svg width="118" height="33" viewBox="0 0 118 33" fill="none" xmlns="http://www.w3.org/2000/svg">
<path d="M3.22656 24.7754C9.12656 12.6066 21.0495 12.6374 26.2734 14.1738C26.7344 22.0097 18.8984 32.6113 13.3672 32.6113C8.94219 32.6113 4.76302 27.3874 3.22656 24.7754Z" fill="white"/>
<path d="M13.8281 13.252C14.6616 12.8351 17.8229 12.4837 19.3593 12.3301C17.9765 12.3301 13.1004 12.5971 12.4453 13.252C12.2752 13.422 12.9063 13.7129 13.8281 13.252Z" fill="white"/>
<path d="M8.29687 15.0957C9.03437 14.727 10.1406 14.3275 10.6016 14.1738C11.2632 13.9399 11.0625 13.7129 10.1406 13.7129C9.40314 13.7129 8.60418 14.0202 8.29689 14.1738C7.83595 14.3275 6.72969 14.727 5.99219 15.0957C5.07031 15.5566 5.53125 15.5566 6.45312 15.5566C7.375 15.5566 7.375 15.5566 8.29687 15.0957Z" fill="white"/>
<path d="M0.921875 20.166C0.553125 20.5348 0.460938 19.8587 0.460938 19.2441C0.460938 18.4008 0.921875 18.3223 1.84375 17.4004C2.76563 16.4785 3.6875 16.4785 4.14844 16.4785H5.53125C5.9 16.4785 4.33173 17.3245 3.6875 17.8613C2.76563 18.6296 1.29063 19.7973 0.921875 20.166Z" fill="white"/>
<path d="M111.589 20.8195L115.672 20.7624C115.491 22.2946 114.972 23.6079 114.116 24.7023C113.269 25.7873 112.203 26.6152 110.918 27.1862C109.633 27.7477 108.239 28.0142 106.735 27.9856C105.346 27.9571 104.175 27.6621 103.224 27.1006C102.272 26.5296 101.525 25.7682 100.982 24.8165C100.44 23.8649 100.083 22.8037 99.9119 21.6332C99.7405 20.4626 99.731 19.2635 99.8833 18.0358L100.083 16.5941C100.273 15.2998 100.621 14.0483 101.125 12.8397C101.639 11.6311 102.31 10.5557 103.138 9.61351C103.966 8.67135 104.946 7.92904 106.079 7.38659C107.211 6.84413 108.496 6.58718 109.933 6.61573C111.437 6.64428 112.707 6.96785 113.744 7.58644C114.791 8.19551 115.595 9.04726 116.157 10.1417C116.728 11.2266 117.047 12.4971 117.113 13.9532L112.959 13.9389C112.969 13.168 112.874 12.4923 112.674 11.9118C112.483 11.3218 112.15 10.865 111.675 10.5414C111.199 10.2083 110.542 10.0275 109.705 9.99894C108.791 9.97039 108.015 10.1512 107.378 10.5414C106.74 10.9316 106.212 11.455 105.793 12.1117C105.384 12.7683 105.06 13.4868 104.823 14.2672C104.594 15.0476 104.423 15.8137 104.309 16.5655L104.109 18.0501C104.033 18.6687 103.98 19.3539 103.952 20.1057C103.923 20.848 103.985 21.557 104.137 22.2327C104.29 22.9084 104.585 23.4699 105.022 23.9172C105.46 24.355 106.112 24.5881 106.978 24.6167C107.835 24.6452 108.572 24.512 109.191 24.217C109.819 23.922 110.328 23.4842 110.718 22.9037C111.118 22.3231 111.408 21.6284 111.589 20.8195Z" fill="white"/>
<path fill-rule="evenodd" clip-rule="evenodd" d="M110.908 19.9821L116.626 19.9021L116.513 20.8617C116.316 22.5306 115.745 23.9944 114.783 25.2243C113.848 26.4207 112.671 27.3341 111.262 27.9601L111.257 27.9622C109.852 28.5761 108.336 28.863 106.719 28.8323L106.718 28.8323C105.22 28.8015 103.899 28.4821 102.793 27.8299L102.788 27.8268C101.713 27.182 100.862 26.3157 100.247 25.2359C99.648 24.1855 99.2593 23.0224 99.0739 21.7558C98.8911 20.5067 98.8817 19.2312 99.0429 17.9316L99.0436 17.9256L99.2453 16.4708C99.4459 15.1068 99.8122 13.7871 100.344 12.5135L100.346 12.5083C100.893 11.2206 101.612 10.0676 102.502 9.05448C103.405 8.02645 104.478 7.21454 105.713 6.62282C106.981 6.01549 108.4 5.73828 109.949 5.76902C111.563 5.7997 112.984 6.14797 114.174 6.85675C115.36 7.54771 116.275 8.51825 116.908 9.75112C117.546 10.964 117.888 12.359 117.959 13.9145L118 14.8031L112.102 14.7828L112.113 13.9284C112.121 13.2311 112.034 12.6559 111.873 12.1875L111.87 12.1797L111.868 12.1718C111.731 11.7463 111.506 11.4508 111.198 11.2417L111.189 11.2352C110.895 11.0292 110.419 10.8708 109.677 10.8454C108.892 10.821 108.288 10.9773 107.82 11.2637C107.298 11.5832 106.862 12.0123 106.51 12.5633C106.143 13.1517 105.851 13.7994 105.634 14.5097C105.417 15.2522 105.255 15.9774 105.147 16.6857L104.949 18.1583C104.876 18.7478 104.826 19.4072 104.798 20.1379C104.772 20.812 104.828 21.4476 104.963 22.0466C105.085 22.5839 105.31 22.9986 105.624 23.3214C105.859 23.5542 106.272 23.7461 107.006 23.7703C107.76 23.7954 108.357 23.6764 108.826 23.4526L108.831 23.4504C109.319 23.2212 109.71 22.8856 110.015 22.4313L110.021 22.4234C110.349 21.9465 110.601 21.3561 110.762 20.6348L110.908 19.9821ZM105.022 23.9172C104.585 23.4699 104.29 22.9084 104.137 22.2327C103.985 21.5571 103.923 20.8481 103.952 20.1057C103.98 19.3539 104.033 18.6687 104.109 18.0501L104.309 16.5655C104.423 15.8137 104.594 15.0476 104.823 14.2672C105.06 13.4868 105.384 12.7683 105.793 12.1117C106.212 11.455 106.74 10.9316 107.378 10.5414C108.015 10.1512 108.791 9.97039 109.705 9.99894C110.542 10.0275 111.199 10.2083 111.675 10.5414C112.15 10.865 112.484 11.3218 112.674 11.9118C112.861 12.4541 112.956 13.0795 112.96 13.788C112.96 13.8379 112.96 13.8882 112.959 13.9389L117.113 13.9532C117.1 13.6634 117.077 13.3811 117.044 13.106C116.91 11.9989 116.614 11.0107 116.157 10.1417C115.595 9.04726 114.791 8.19551 113.744 7.58644C112.707 6.96785 111.437 6.64428 109.933 6.61573C108.496 6.58718 107.211 6.84413 106.079 7.38659C104.946 7.92904 103.966 8.67135 103.138 9.61351C102.31 10.5557 101.639 11.6311 101.125 12.8397C100.621 14.0483 100.273 15.2998 100.083 16.5941L99.8833 18.0358C99.731 19.2635 99.7406 20.4626 99.9119 21.6332C100.083 22.8037 100.44 23.8649 100.982 24.8165C101.525 25.7682 102.272 26.5296 103.224 27.1006C104.175 27.6621 105.346 27.9571 106.735 27.9856C108.239 28.0142 109.633 27.7477 110.918 27.1862C112.203 26.6152 113.269 25.7873 114.116 24.7023C114.81 23.8157 115.282 22.7853 115.532 21.6113C115.591 21.3362 115.637 21.0533 115.672 20.7624L111.589 20.8195C111.408 21.6284 111.118 22.3232 110.718 22.9037C110.328 23.4842 109.819 23.922 109.191 24.217C108.572 24.512 107.835 24.6452 106.978 24.6167C106.112 24.5881 105.46 24.355 105.022 23.9172Z" fill="white"/>
<path d="M98.2402 6.9155L94.6429 27.7001H90.4603L94.0719 6.9155H98.2402Z" fill="white"/>
<path fill-rule="evenodd" clip-rule="evenodd" d="M99.2463 6.06863L95.3558 28.547H89.4536L93.3595 6.06863H99.2463ZM98.2403 6.9155H94.0719L90.4603 27.7001H94.6429L98.2403 6.9155Z" fill="white"/>
<path d="M87.9455 24.3597L87.3602 27.7001H77.182L77.7673 24.3597H87.9455ZM82.164 6.9155L78.5524 27.7001H74.3698L77.9671 6.9155H82.164Z" fill="white"/>
<path fill-rule="evenodd" clip-rule="evenodd" d="M88.9537 23.5129L88.0716 28.547H73.3638L77.2543 6.06863H83.1708L80.1396 23.5129H88.9537ZM79.1329 24.3597H87.9455L87.3602 27.7001H74.3699L77.9672 6.9155H82.1641L79.1329 24.3597Z" fill="white"/>
<path d="M71.5792 24.3597L70.9939 27.7001H60.2447L60.8157 24.3597H71.5792ZM65.2267 6.9155L61.6151 27.7001H57.4325L61.0298 6.9155H65.2267ZM71.7362 15.3807L71.1652 18.6354H61.815L62.386 15.3807H71.7362ZM74.5769 6.9155L73.9917 10.2702H63.2568L63.8563 6.9155H74.5769Z" fill="white"/>
<path fill-rule="evenodd" clip-rule="evenodd" d="M72.5873 23.5129L71.7053 28.547H56.4265L60.3169 6.06863H75.5843L74.7036 11.117H65.3562L64.7625 14.5338H72.7446L71.8764 19.4823H63.9026L63.2023 23.5129H72.5873ZM62.1955 24.3597H71.5792L70.9939 27.7001H57.4325L61.0298 6.9155H74.5769L73.9917 10.2702H64.6438L63.7558 15.3807H71.7362L71.1652 18.6354H63.1902L62.1955 24.3597Z" fill="white"/>
<path d="M45.2395 27.7001H40.6143L41.2139 24.3597L45.368 24.3883C46.6622 24.3883 47.7519 24.0837 48.637 23.4747C49.522 22.8561 50.2168 22.0472 50.7211 21.0479C51.235 20.0391 51.5824 18.9494 51.7632 17.7789L51.8917 16.7653C51.9774 16.0421 52.0059 15.3093 51.9774 14.567C51.9488 13.8152 51.8108 13.1204 51.5634 12.4828C51.3255 11.8452 50.9448 11.3265 50.4214 10.9268C49.8979 10.5271 49.1889 10.313 48.2944 10.2844L43.555 10.2702L44.1403 6.9155L48.4228 6.92977C49.8123 6.95832 51.0209 7.24383 52.0487 7.78628C53.0765 8.31922 53.9188 9.04249 54.5754 9.9561C55.2321 10.8697 55.6889 11.9166 55.9458 13.0966C56.2028 14.2672 56.2551 15.4996 56.1029 16.7939L55.9887 17.8074C55.7983 19.1969 55.4034 20.4959 54.8038 21.7045C54.2138 22.9132 53.4477 23.9695 52.5055 24.8736C51.5729 25.7682 50.4927 26.4677 49.2651 26.9721C48.0374 27.467 46.6955 27.7096 45.2395 27.7001ZM46.5956 6.9155L42.984 27.7001H38.8014L42.3987 6.9155H46.5956Z" fill="white"/>
<path fill-rule="evenodd" clip-rule="evenodd" d="M38.8014 27.7001L42.3988 6.9155H46.5957L46.5943 6.92368L48.4229 6.92977C49.8123 6.95832 51.021 7.24383 52.0488 7.78628C53.0766 8.31922 53.9188 9.04249 54.5755 9.9561C55.2321 10.8697 55.6889 11.9166 55.9459 13.0966C56.2028 14.2672 56.2552 15.4996 56.1029 16.7939L55.9887 17.8074C55.7984 19.1969 55.4034 20.4959 54.8039 21.7045C54.2138 22.9132 53.4477 23.9695 52.5056 24.8736C51.5729 25.7682 50.4928 26.4677 49.2651 26.9721C48.0375 27.467 46.6956 27.7096 45.2395 27.7001H38.8014ZM37.7954 28.547L41.6859 6.06863H43.4284L43.4289 6.06625L44.1418 6.06863H47.6024L47.6004 6.08016L48.433 6.08293L48.4403 6.08308C49.9348 6.11379 51.2768 6.4219 52.4413 7.03587C53.5825 7.6281 54.5271 8.43778 55.2631 9.46184C55.9921 10.476 56.4934 11.6311 56.7732 12.9156C57.0518 14.1852 57.1062 15.512 56.9442 16.8908C56.9441 16.8915 56.9441 16.8922 56.944 16.8928L56.8291 17.9123L56.8278 17.9224C56.6256 19.3982 56.205 20.785 55.5638 22.0784C54.9315 23.3728 54.1075 24.5101 53.0919 25.4847C52.0806 26.4547 50.9101 27.2118 49.587 27.7554L49.5817 27.7575C48.2427 28.2973 46.7911 28.5568 45.2368 28.547H37.7954ZM43.5617 24.3759L46.0115 10.2776L48.2944 10.2844C49.189 10.313 49.898 10.5271 50.4214 10.9268C50.9448 11.3265 51.3255 11.8452 51.5634 12.4828C51.8109 13.1204 51.9489 13.8152 51.9774 14.567C52.006 15.3093 51.9774 16.0421 51.8918 16.7653L51.7633 17.7789C51.5825 18.9494 51.2351 20.0391 50.7212 21.0479C50.2168 22.0472 49.5221 22.8561 48.637 23.4747C47.752 24.0837 46.6623 24.3883 45.368 24.3883L43.5617 24.3759ZM44.5672 23.5359L45.368 23.5414C45.369 23.5414 45.37 23.5414 45.3709 23.5414C46.5267 23.541 47.4383 23.2707 48.1544 22.7788C48.9192 22.2436 49.5219 21.5444 49.9652 20.6663L49.9666 20.6635C50.4362 19.7416 50.7564 18.7423 50.9246 17.6607L51.0512 16.6623C51.1312 15.9849 51.158 15.2974 51.1312 14.5995C51.1058 13.9323 50.9841 13.3309 50.7739 12.7892L50.7699 12.7789C50.5858 12.2855 50.2997 11.8994 49.9074 11.5999C49.5684 11.341 49.0529 11.1576 48.2792 11.1313L46.7235 11.1266L44.5672 23.5359Z" fill="white"/>
<path d="M38.1127 6.9155L34.5154 27.7001H30.3328L33.9444 6.9155H38.1127Z" fill="white"/>
<path fill-rule="evenodd" clip-rule="evenodd" d="M39.1187 6.06863L35.2283 28.547H29.326L33.232 6.06863H39.1187ZM38.1127 6.9155H33.9444L30.3328 27.7001H34.5154L38.1127 6.9155Z" fill="white"/>
<path fill-rule="evenodd" clip-rule="evenodd" d="M26.2734 12.791C21.3568 11.4082 9.21875 10.1176 0 16.0176V6.79883C0 5.87695 0.460938 5.41602 1.84375 4.49414C3.22656 3.57227 9.21875 0.806641 10.6016 0.345703C11.9844 -0.115234 14.2891 -0.115234 15.6719 0.345703C17.0547 0.806641 24.4297 4.0332 25.3516 4.49414C26.2734 4.95508 26.2734 6.33789 26.2734 6.79883V12.791ZM23.9688 11.9943C23.0469 10.9188 21.1109 8.67556 20.7422 8.30681C20.2813 7.84588 19.3594 7.38494 18.8984 7.84588L17.5156 6.46305C17.4691 6.41653 17.4179 6.36062 17.362 6.29958C16.8639 5.75586 15.9933 4.80538 14.75 6.46305C13.6438 7.93805 12.7526 8.92137 12.4453 9.22865L11.0625 7.84588C10.6016 7.3849 9.67969 6.4631 8.75781 7.84588C8.02032 8.9521 5.07031 11.9943 3.6875 13.3771C7.37501 11.8407 16.5938 9.41307 23.9688 11.9943Z" fill="white"/>
</svg>
