<svg width="90" height="65" viewBox="0 0 90 65" fill="none" xmlns="http://www.w3.org/2000/svg">
<path d="M58.4501 63.5387C58.4501 64.3458 51.9078 65 43.8375 65C35.7673 65 29.225 64.3458 29.225 63.5387C29.225 62.7317 35.7673 62.0775 43.8375 62.0775C51.9078 62.0775 58.4501 62.7317 58.4501 63.5387Z" fill="white"/>
<path d="M39.2914 58.6936L41.2398 60.3172L46.273 60.5607L47.8966 59.343L50.0885 58.5312L51.9556 59.1806L53.3357 61.3725L53.1733 62.509L36.856 62.6714L35.7195 61.5349L35.8007 59.5054L37.5055 58.45L39.2914 58.6936Z" fill="black"/>
<path d="M38.8855 62.8081C37.5866 62.938 36.2336 62.1045 35.7195 61.6716L36.2066 62.5646L37.2619 63.3764L39.2102 63.5387H44.0811L46.3541 63.3764L48.0589 63.2952L50.4132 63.7011H52.118L53.0921 62.9705L53.2545 62.321C51.3873 63.1328 49.5202 62.6457 47.7342 62.2398C46.3054 61.9151 44.7035 62.2669 44.0811 62.4834C42.2951 61.9963 40.5091 62.6457 38.8855 62.8081Z" fill="black"/>
<path fill-rule="evenodd" clip-rule="evenodd" d="M36.213 59.5115C35.9477 59.8387 35.782 60.2778 35.8005 60.8521C35.8196 61.4452 35.9623 61.8829 36.1707 62.2091C36.3791 62.5351 36.6624 62.7639 36.9852 62.9253C37.6403 63.2529 38.4418 63.2954 39.0479 63.2954C39.4256 63.2954 39.8152 63.303 40.2367 63.3112C41.1918 63.3298 42.311 63.3517 43.8286 63.2955C44.3158 63.2775 44.8166 63.2254 45.3285 63.1721C45.4758 63.1568 45.6241 63.1413 45.7733 63.1266C46.4339 63.0613 47.1063 63.0103 47.7501 63.0523C48.0804 63.0738 48.4068 63.1343 48.7618 63.2002C48.9044 63.2266 49.0516 63.2539 49.2056 63.2799C49.753 63.3723 50.4293 63.4576 51.3874 63.4576C52.2697 63.4576 52.8548 63.0062 53.0524 62.3706C53.2534 61.724 53.0745 60.8152 52.2594 59.8837C51.4592 58.9692 50.5826 58.7352 49.8176 58.8089C49.0377 58.8841 48.3582 59.2815 47.9876 59.652C47.3156 60.3241 46.4325 60.7175 46.0425 60.842L44.597 61.6072L43.6793 61.357L42.6134 61.6849L41.5625 61.3028L41.2757 60.8248C41.1561 60.6345 40.6614 60.0099 39.7002 59.1768C39.1701 58.7174 38.1674 58.5535 37.2922 58.8199C36.8619 58.9508 36.4809 59.1811 36.213 59.5115ZM37.1504 58.3539C38.1423 58.052 39.3315 58.2128 40.0192 58.8087C41.0032 59.6616 41.5369 60.3237 41.6898 60.5684L41.691 60.5703L41.8913 60.904L42.6263 61.1713L43.6711 60.8499L44.5394 61.0866L45.8546 60.3903L45.8766 60.3835C46.2027 60.2832 47.0297 59.9211 47.6432 59.3076C48.0845 58.8663 48.8662 58.4113 49.7708 58.3241C50.6903 58.2355 51.7214 58.5291 52.626 59.563C53.5158 60.5798 53.7833 61.6599 53.5175 62.5152C53.2483 63.3814 52.4533 63.9447 51.3874 63.9447C50.3971 63.9447 49.6933 63.8562 49.1245 63.7602C48.9494 63.7307 48.7909 63.7012 48.6431 63.6738C48.3023 63.6106 48.0184 63.5579 47.7184 63.5383C47.1174 63.4991 46.479 63.5463 45.8212 63.6113C45.6781 63.6255 45.5338 63.6405 45.3889 63.6556C44.8743 63.7092 44.3518 63.7636 43.8466 63.7823C42.3152 63.8389 41.1706 63.8167 40.2106 63.798C39.7937 63.7899 39.4117 63.7824 39.0479 63.7824C38.4362 63.7824 37.5329 63.7438 36.7674 63.361C36.3798 63.1672 36.0238 62.8836 35.7603 62.4714C35.4969 62.0593 35.3351 61.533 35.3137 60.8678C35.2916 60.1838 35.4912 59.6284 35.8347 59.2047C36.1757 58.7841 36.6471 58.5071 37.1504 58.3539Z" fill="white"/>
<path fill-rule="evenodd" clip-rule="evenodd" d="M36.9106 62.6377C36.3691 62.3889 35.8728 62.0803 35.5779 61.8697L35.861 61.4734C36.1344 61.6686 36.6041 61.9608 37.1139 62.1951C37.6326 62.4334 38.1534 62.593 38.5434 62.5651C39.0202 62.5311 39.5876 62.4229 40.192 62.3077C40.2852 62.29 40.3794 62.272 40.4741 62.2542C41.172 62.1227 41.9037 61.9963 42.5386 61.9963C43.0387 61.9963 43.4138 62.0379 43.6829 62.0924C43.8612 62.1286 44.0058 62.1729 44.1109 62.2215C44.6268 62.0778 45.6934 61.8339 46.5165 61.8339C47.4301 61.8339 48.0798 61.9989 48.7122 62.1596L48.7378 62.1661C49.3738 62.3276 49.9986 62.4833 50.9002 62.4833C51.627 62.4833 52.1501 62.3911 52.5044 62.2812C52.8689 62.1681 53.0323 62.0436 53.0695 62.0001L53.4394 62.3171C53.3142 62.4631 53.0474 62.6227 52.6488 62.7464C52.24 62.8732 51.6671 62.9704 50.9002 62.9704C49.9346 62.9704 49.2606 62.8014 48.6179 62.6382L48.6013 62.634C47.9694 62.4735 47.369 62.321 46.5165 62.321C45.7078 62.321 44.6036 62.5835 44.1498 62.717L44.0326 62.7514L43.9349 62.6782C43.935 62.6782 43.9349 62.6782 43.9346 62.678C43.9316 62.6762 43.9072 62.6613 43.8485 62.64C43.7882 62.6182 43.702 62.5933 43.5862 62.5698C43.3547 62.5229 43.0127 62.4833 42.5386 62.4833C41.9558 62.4833 41.2669 62.6005 40.5643 62.7328C40.4719 62.7502 40.3791 62.7679 40.2863 62.7857C39.6858 62.9002 39.0859 63.0147 38.5781 63.051C38.0589 63.0881 37.4432 62.8824 36.9106 62.6377Z" fill="white"/>
<path fill-rule="evenodd" clip-rule="evenodd" d="M44.0047 63.5864L43.5176 61.1509L43.9952 61.0554L44.4823 63.4908L44.0047 63.5864Z" fill="white"/>
<path d="M40.2656 53.7971L45.2988 50.4687L45.8671 59.8856L43.594 60.6974L41.1586 60.048L40.5903 57.6126L40.2656 53.7971Z" fill="black"/>
<path d="M42.1328 60.2915L41.2398 60.048L41.6079 61.1845L42.5387 61.5904L43.6752 61.1845L44.8117 61.5092L45.8671 60.7786L45.9483 59.7232L44.8117 60.2915H42.1328Z" fill="black"/>
<path fill-rule="evenodd" clip-rule="evenodd" d="M45.6002 49.9536L46.1974 60.8739L46.1205 60.9508C45.5938 61.4775 45.0563 61.676 44.5865 61.6918C44.2253 61.7039 43.9144 61.6076 43.6916 61.4847C43.3062 61.7639 42.8796 61.8191 42.5038 61.7711C42.0864 61.7178 41.7203 61.5371 41.5041 61.3827L41.4629 61.3533L41.4368 61.3098C40.9223 60.4523 40.5862 58.9942 40.3698 57.5575C40.1516 56.1088 40.0495 54.6377 40.0222 53.7232L40.0181 53.5864L45.6002 49.9536ZM40.5135 53.8451C40.5461 54.7499 40.6472 56.1287 40.8515 57.485C41.0639 58.8958 41.3823 60.2404 41.8281 61.0143C41.9961 61.1246 42.267 61.2498 42.5655 61.288C42.8825 61.3285 43.2184 61.2706 43.5114 61.0043L43.6622 60.8672L43.8237 60.9915C43.9571 61.0941 44.2269 61.2165 44.5702 61.205C44.8861 61.1943 45.2801 61.0696 45.699 60.6807L45.1598 50.8214L40.5135 53.8451Z" fill="white"/>
<path fill-rule="evenodd" clip-rule="evenodd" d="M43.4353 61.2261L42.1364 53.7575L42.6163 53.674L43.9152 61.1426L43.4353 61.2261Z" fill="white"/>
<path fill-rule="evenodd" clip-rule="evenodd" d="M41.8196 60.4583C41.3458 60.2653 40.9762 59.9455 40.7998 59.7049L41.1926 59.4169C41.3138 59.5823 41.6099 59.8469 42.0033 60.0071C42.3896 60.1644 42.8512 60.2143 43.3279 59.99L43.4201 59.9466L43.5158 59.9818C43.742 60.0652 44.1339 60.1435 44.5465 60.0963C44.9542 60.0496 45.368 59.883 45.6755 59.4916L46.0585 59.7926C45.6516 60.3104 45.1048 60.5227 44.6019 60.5802C44.1559 60.6312 43.7334 60.5626 43.4433 60.4715C42.8487 60.7186 42.2771 60.6445 41.8196 60.4583Z" fill="white"/>
<path d="M40.9961 54.8524C39.5024 54.5926 39.4537 53.4453 39.6161 52.9041L40.5903 51.6052L41.0774 48.7639L47.0847 46.572C46.9224 46.9779 46.3866 48.2768 45.5423 50.2251C44.487 52.6605 42.8633 55.1771 40.9961 54.8524Z" fill="black"/>
<path d="M49.1143 39.4281C52.1667 34.4923 55.5817 31.6347 56.9077 30.8229H58.2066C58.0442 30.9853 57.5896 31.4074 57.07 31.7971C56.4206 32.2842 55.2029 33.4207 53.9852 34.7196C53.011 35.7587 52.0098 37.588 51.6309 38.3727L46.5977 47.7897L45.38 50.5498L43.6752 53.4723L41.5645 54.9336L40.1033 54.6089L39.4538 53.4723L40.2656 53.2288L40.9151 52.6605L41.1586 50.8745H41.8081L42.0516 51.8487C43.134 49.7651 46.0619 44.3639 49.1143 39.4281Z" fill="black"/>
<path fill-rule="evenodd" clip-rule="evenodd" d="M47.5133 46.1562L47.3109 46.6623C47.1474 47.0711 46.6106 48.3722 45.7658 50.3218C45.234 51.5491 44.5526 52.8128 43.758 53.7329C42.9702 54.645 42.0183 55.2772 40.9544 55.0922C40.1406 54.9507 39.6808 54.5555 39.464 54.0857C39.2545 53.6319 39.2892 53.1462 39.3828 52.834L39.3953 52.7925L40.3602 51.506L40.8612 48.5834L47.5133 46.1562ZM41.2936 48.9441L40.8204 51.7042L39.8383 53.0136C39.7787 53.243 39.7668 53.5794 39.9062 53.8816C40.0466 54.1857 40.358 54.4941 41.0379 54.6123C41.8412 54.752 42.6347 54.2883 43.3894 53.4145C44.1372 52.5486 44.7953 51.3363 45.3189 50.1282C45.9378 48.6998 46.3905 47.6215 46.6515 46.9892L41.2936 48.9441Z" fill="white"/>
<path d="M51.3875 39.0222C52.8812 34.8657 57.3136 31.3371 59.1807 30.2547L48.5461 22.4613L36.6125 26.0333L34.2583 38.2916C35.5031 43.0271 37.944 52.6281 37.7491 53.1476C37.5056 53.7971 37.4244 55.1771 38.3174 55.4207C39.2104 55.6642 39.8597 54.4465 39.2103 53.4723C38.6907 52.693 38.8857 51.7946 39.0481 51.4428C38.7233 53.1476 39.3728 53.2288 39.9411 53.2288C40.5093 53.2288 41.1586 52.9041 40.9963 51.7675C40.8339 50.631 41.9704 50.4686 41.9704 51.4428C41.9704 52.417 42.7822 52.5793 43.2693 51.7675C43.7564 50.9557 43.0258 49.738 43.7564 48.9262C44.487 48.1144 46.0295 48.1144 46.8413 47.3838C47.4907 46.7993 47.7884 46.0849 47.5719 45.5978C47.8966 45.7331 47.9778 45.7277 47.9778 46.2473C47.9778 46.8967 47.5719 48.1144 48.3837 48.7639C49.1955 49.4133 50.9816 49.2509 50.2509 45.8414C49.6664 43.1137 50.0074 41.6741 50.2509 41.2952C53.9528 44.3476 56.9889 41.5388 58.0443 39.7528L56.8266 39.0222C54.31 42.6753 50.738 41.0517 51.3875 39.0222Z" fill="black"/>
<path d="M55.3652 31.5537C55.9497 30.3198 54.2557 29.0371 53.3357 28.55C51.7932 27.7382 51.0626 28.9559 50.7379 29.6866C50.4132 30.4172 50.4132 31.5537 51.3873 32.5279C52.3615 33.502 54.6345 33.0961 55.3652 31.5537Z" fill="black"/>
<path fill-rule="evenodd" clip-rule="evenodd" d="M51.7208 28.7387C51.3615 28.9929 51.1196 29.4274 50.9605 29.7855C50.6732 30.432 50.6626 31.4587 51.5596 32.3557C51.9685 32.7646 52.684 32.9081 53.4151 32.7467C54.14 32.5867 54.8188 32.1383 55.1451 31.4495C55.3732 30.968 55.1773 30.4455 54.7308 29.9315C54.2912 29.4255 53.6652 29.0001 53.222 28.7654C52.8658 28.578 52.5733 28.5164 52.3343 28.5258C52.0968 28.5351 51.8955 28.6152 51.7208 28.7387ZM52.3152 28.039C52.6572 28.0256 53.0343 28.1162 53.4491 28.3345L53.4497 28.3348C53.9265 28.5873 54.6073 29.0466 55.0985 29.6121C55.5829 30.1697 55.9418 30.9055 55.5853 31.658C55.181 32.5116 54.358 33.0374 53.5201 33.2223C52.6886 33.4059 51.7804 33.2654 51.2152 32.7001C50.1638 31.6487 50.1533 30.4024 50.5154 29.5877C50.681 29.2151 50.9667 28.6755 51.4395 28.3411C51.6809 28.1703 51.9718 28.0525 52.3152 28.039Z" fill="white"/>
<path d="M53.7416 29.7933C53.7416 30.1071 53.5962 30.3615 53.4169 30.3615C53.2375 30.3615 53.0922 30.1071 53.0922 29.7933C53.0922 29.4794 53.2375 29.225 53.4169 29.225C53.5962 29.225 53.7416 29.4794 53.7416 29.7933Z" fill="white"/>
<path d="M55.0404 30.9298C55.0404 31.2436 54.8951 31.4981 54.7157 31.4981C54.5364 31.4981 54.391 31.2436 54.391 30.9298C54.391 30.616 54.5364 30.3615 54.7157 30.3615C54.8951 30.3615 55.0404 30.616 55.0404 30.9298Z" fill="white"/>
<path d="M53.5792 31.5792C53.5792 31.8034 53.4702 31.9851 53.3357 31.9851C53.2012 31.9851 53.0922 31.8034 53.0922 31.5792C53.0922 31.3551 53.2012 31.1733 53.3357 31.1733C53.4702 31.1733 53.5792 31.3551 53.5792 31.5792Z" fill="white"/>
<path d="M41.1904 46.4605C41.7749 45.2266 40.081 43.9439 39.1609 43.4568C37.6185 42.645 36.8879 43.8627 36.5631 44.5934C36.2384 45.324 36.2384 46.4605 37.2126 47.4347C38.1867 48.4088 40.4598 48.0029 41.1904 46.4605Z" fill="black"/>
<path fill-rule="evenodd" clip-rule="evenodd" d="M37.5461 43.6455C37.1868 43.8997 36.9449 44.3342 36.7857 44.6923C36.4984 45.3388 36.4879 46.3655 37.3848 47.2625C37.7938 47.6714 38.5092 47.8149 39.2404 47.6535C39.9653 47.4935 40.6441 47.0451 40.9704 46.3563C41.1984 45.8748 41.0026 45.3523 40.5561 44.8383C40.1165 44.3323 39.4905 43.9069 39.0473 43.6722C38.691 43.4848 38.3985 43.4232 38.1596 43.4326C37.9221 43.4419 37.7207 43.522 37.5461 43.6455ZM38.1404 42.9458C38.4824 42.9324 38.8595 43.023 39.2744 43.2413L39.2749 43.2416C39.7518 43.4941 40.4326 43.9534 40.9238 44.5189C41.4081 45.0765 41.767 45.8123 41.4106 46.5648C41.0062 47.4184 40.1832 47.9442 39.3454 48.1291C38.5138 48.3127 37.6057 48.1722 37.0404 47.6069C35.989 46.5555 35.9785 45.3092 36.3406 44.4945C36.5062 44.1219 36.792 43.5823 37.2648 43.2479C37.5062 43.0771 37.797 42.9593 38.1404 42.9458Z" fill="white"/>
<path d="M39.5669 44.7001C39.5669 45.0139 39.4215 45.2683 39.2421 45.2683C39.0628 45.2683 38.9174 45.0139 38.9174 44.7001C38.9174 44.3862 39.0628 44.1318 39.2421 44.1318C39.4215 44.1318 39.5669 44.3862 39.5669 44.7001Z" fill="white"/>
<path d="M40.8658 45.8366C40.8658 46.1504 40.7204 46.4049 40.541 46.4049C40.3617 46.4049 40.2163 46.1504 40.2163 45.8366C40.2163 45.5228 40.3617 45.2683 40.541 45.2683C40.7204 45.2683 40.8658 45.5228 40.8658 45.8366Z" fill="white"/>
<path d="M39.4045 46.486C39.4045 46.7102 39.2955 46.8919 39.161 46.8919C39.0265 46.8919 38.9174 46.7102 38.9174 46.486C38.9174 46.2619 39.0265 46.0801 39.161 46.0801C39.2955 46.0801 39.4045 46.2619 39.4045 46.486Z" fill="white"/>
<path d="M46.027 32.7675C46.027 30.9949 47.4641 29.5578 49.2368 29.5578C51.0095 29.5578 52.4465 30.9949 52.4465 32.7675C52.4465 34.5402 51.0095 35.9773 49.2368 35.9773C47.4641 35.9773 46.027 34.5402 46.027 32.7675Z" fill="white"/>
<path d="M36.7663 32.8151C36.7663 31.0424 38.2033 29.6054 39.976 29.6054C41.7487 29.6054 43.1857 31.0424 43.1857 32.8151C43.1857 34.5878 41.7487 36.0248 39.976 36.0248C38.2033 36.0248 36.7663 34.5878 36.7663 32.8151Z" fill="white"/>
<path d="M46.0271 33.3462L43.3961 33.3462L43.3961 32.3991L46.0271 32.3991L46.0271 33.3462Z" fill="white"/>
<path d="M42.8701 35.1242L41.8675 35.703L38.4936 29.8592L39.4961 29.2804L42.8701 35.1242Z" fill="black"/>
<path d="M51.9623 35.1242L50.9598 35.703L47.5858 29.8592L48.5883 29.2804L51.9623 35.1242Z" fill="black"/>
<path d="M41.4611 35.936L41.2041 36.0844L37.8301 30.2406L38.0872 30.0922L41.4611 35.936Z" fill="black"/>
<path d="M50.5533 35.936L50.2963 36.0844L46.9224 30.2406L47.1794 30.0922L50.5533 35.936Z" fill="black"/>
<path fill-rule="evenodd" clip-rule="evenodd" d="M39.9759 29.0318C37.9126 29.0318 36.24 30.7045 36.24 32.7677C36.24 34.831 37.9126 36.5037 39.9759 36.5037C42.0392 36.5037 43.7118 34.831 43.7118 32.7677C43.7118 30.7045 42.0392 29.0318 39.9759 29.0318ZM39.976 29.6054C38.2033 29.6054 36.7663 31.0424 36.7663 32.8151C36.7663 34.5878 38.2033 36.0248 39.976 36.0248C41.7487 36.0248 43.1857 34.5878 43.1857 32.8151C43.1857 31.0424 41.7487 29.6054 39.976 29.6054Z" fill="white"/>
<path fill-rule="evenodd" clip-rule="evenodd" d="M49.2369 29.0315C47.1736 29.0315 45.501 30.7042 45.501 32.7674C45.501 34.8307 47.1736 36.5034 49.2369 36.5034C51.3002 36.5034 52.9728 34.8307 52.9728 32.7674C52.9728 30.7042 51.3002 29.0315 49.2369 29.0315ZM49.2368 29.5578C47.4641 29.5578 46.0271 30.9949 46.0271 32.7675C46.0271 34.5402 47.4641 35.9773 49.2368 35.9773C51.0095 35.9773 52.4465 34.5402 52.4465 32.7675C52.4465 30.9949 51.0095 29.5578 49.2368 29.5578Z" fill="white"/>
<path d="M39.8808 28.7909C41.2512 28.5402 41.4607 28.6474 42.5116 28.8147C43.51 28.969 42.9383 28.1871 42.5212 27.7624C42.1041 27.3376 40.8412 27.3262 40.3146 27.374C39.7879 27.4219 38.5218 27.7787 38.3607 28.1456C38.1995 28.5125 38.5104 29.0416 39.8808 28.7909Z" fill="white"/>
<path d="M48.8108 29.278C50.1812 29.0273 50.3907 29.1344 51.4416 29.3018C52.4401 29.4561 51.8683 28.6742 51.4512 28.2495C51.0341 27.8247 49.7713 27.8133 49.2446 27.8611C48.718 27.909 47.4519 28.2658 47.2907 28.6327C47.1295 28.9996 47.4404 29.5287 48.8108 29.278Z" fill="white"/>
<path fill-rule="evenodd" clip-rule="evenodd" d="M47.0014 26.4125C47.0161 26.501 46.9564 26.5846 46.8679 26.5994C46.7784 26.6143 46.7206 26.6493 46.6812 26.6918C46.6403 26.7358 46.6105 26.7974 46.5945 26.877C46.5619 27.04 46.5938 27.2507 46.6673 27.4343C46.7158 27.5557 46.7536 27.7353 46.7697 27.9303C46.7858 28.1269 46.7809 28.3513 46.7363 28.5631C46.692 28.7733 46.6057 28.9853 46.4475 29.1403C46.2838 29.3007 46.0583 29.385 45.7724 29.3612C45.486 29.3373 45.2942 29.2177 45.1894 29.0261C45.0927 28.8495 45.0856 28.6378 45.0961 28.4592C45.1015 28.3673 45.1123 28.2765 45.1221 28.1953C45.1225 28.1917 45.1229 28.1882 45.1234 28.1847C45.1329 28.1057 45.141 28.0384 45.1443 27.9801C45.145 27.9683 45.1454 27.9576 45.1456 27.9478C45.1163 27.993 45.0892 28.049 45.0556 28.1186C45.0411 28.1487 45.0254 28.1812 45.0077 28.2166C44.9512 28.3295 44.8769 28.4647 44.7685 28.5651C44.6522 28.6727 44.498 28.7387 44.3017 28.7106C44.1434 28.688 44.0242 28.6095 43.9457 28.4952C43.8712 28.3866 43.84 28.2559 43.83 28.1329C43.8099 27.8878 43.8692 27.6168 43.9271 27.4432C43.9554 27.3581 44.0474 27.3122 44.1324 27.3405C44.2175 27.3689 44.2635 27.4608 44.2351 27.5459C44.1847 27.697 44.1385 27.9213 44.1536 28.1064C44.1611 28.1985 44.1828 28.2668 44.2134 28.3114C44.2401 28.3503 44.2786 28.3793 44.3476 28.3892C44.4354 28.4017 44.4943 28.3764 44.548 28.3267C44.6095 28.2698 44.662 28.1818 44.7172 28.0714C44.7286 28.0487 44.7404 28.0242 44.7527 27.9987C44.7934 27.9143 44.8389 27.8198 44.8876 27.7496C44.921 27.7014 44.9661 27.6485 45.0277 27.6126C45.0953 27.5734 45.1741 27.5599 45.257 27.5806C45.3691 27.6086 45.4268 27.6938 45.4509 27.7743C45.4724 27.8462 45.4725 27.9277 45.4685 27.9984C45.4646 28.0674 45.4553 28.1445 45.4462 28.2194C45.4457 28.2243 45.4451 28.2292 45.4445 28.2342C45.4346 28.316 45.425 28.3976 45.4203 28.4783C45.4105 28.6447 45.4237 28.778 45.4742 28.8703C45.5165 28.9476 45.5987 29.0208 45.7994 29.0376C46.0005 29.0543 46.1303 28.9965 46.2202 28.9083C46.3157 28.8147 46.3816 28.6716 46.4185 28.4962C46.4551 28.3223 46.4603 28.1306 46.446 27.9569C46.4316 27.7815 46.3984 27.6364 46.3658 27.5549C46.2768 27.3326 46.2276 27.0561 46.2761 26.8133C46.3008 26.6899 46.3522 26.5689 46.4432 26.4708C46.5357 26.3712 46.6606 26.3047 46.8145 26.2791C46.903 26.2643 46.9866 26.3241 47.0014 26.4125Z" fill="white"/>
<path fill-rule="evenodd" clip-rule="evenodd" d="M44.6425 34.3483C44.6683 34.4342 44.6196 34.5247 44.5337 34.5504C44.4162 34.5857 44.2887 34.6614 44.2346 34.757C44.2106 34.7994 44.1992 34.8481 44.2111 34.9099C44.2237 34.975 44.2645 35.0653 44.3657 35.181C44.5228 35.3606 44.6123 35.5354 44.656 35.7102C44.6993 35.8835 44.6951 36.047 44.6789 36.1982C44.6704 36.2776 44.6595 36.3517 44.6491 36.4226C44.6178 36.6349 44.5907 36.819 44.6445 37.0345C44.7049 37.2761 44.98 37.4889 45.2958 37.543C45.4482 37.5691 45.5923 37.5541 45.7059 37.4987C45.8152 37.4454 45.907 37.35 45.9551 37.1896C46.0382 36.9126 45.9703 36.7592 45.8837 36.6686C45.7859 36.5663 45.6364 36.5158 45.5262 36.5048C45.437 36.4959 45.3719 36.4163 45.3808 36.3271C45.3897 36.2379 45.4693 36.1728 45.5585 36.1817C45.7189 36.1977 45.951 36.269 46.1184 36.4441C46.2969 36.6309 46.3779 36.9104 46.2661 37.2829C46.1925 37.5283 46.0407 37.6968 45.8481 37.7906C45.6598 37.8824 45.4436 37.8978 45.2409 37.8631C44.8464 37.7954 44.4315 37.5211 44.3295 37.1132C44.2584 36.829 44.2988 36.5602 44.3324 36.3364C44.3416 36.2752 44.3503 36.2175 44.356 36.1636C44.3703 36.0307 44.3712 35.91 44.3409 35.789C44.3111 35.6695 44.2483 35.54 44.1213 35.3948C43.9952 35.2507 43.9189 35.1097 43.8923 34.9713C43.8649 34.8297 43.8921 34.7028 43.952 34.597C44.0657 34.3963 44.2872 34.2854 44.4404 34.2394C44.5263 34.2136 44.6168 34.2624 44.6425 34.3483Z" fill="white"/>
<path fill-rule="evenodd" clip-rule="evenodd" d="M38.3525 36.9154C38.44 36.9348 38.4952 37.0216 38.4758 37.1091C38.3966 37.4653 38.3361 37.9823 38.4005 38.3857C38.4328 38.5883 38.4935 38.7411 38.5787 38.8343C38.6551 38.9179 38.7642 38.9683 38.9437 38.9427C39.1916 38.9072 39.2831 38.8178 39.3251 38.734C39.375 38.6341 39.3783 38.4983 39.3631 38.3261C39.3603 38.2949 39.3564 38.257 39.3523 38.218C39.3471 38.1678 39.3416 38.1158 39.3384 38.0743C39.332 37.9925 39.3289 37.9029 39.3433 37.8199C39.358 37.7348 39.3938 37.642 39.4769 37.5732C39.5593 37.505 39.6647 37.4798 39.7785 37.4798C39.8865 37.4798 39.9885 37.4988 40.0714 37.5537C40.1598 37.6122 40.2059 37.6977 40.2242 37.7872C40.2414 37.8712 40.2349 37.9611 40.2213 38.0449C40.2074 38.1303 40.1838 38.2224 40.1582 38.3147C40.1466 38.3564 40.1346 38.3982 40.1225 38.4404C40.0793 38.5909 40.0352 38.7449 40.0068 38.9036C39.9709 39.1049 39.9647 39.2943 40.0152 39.4626C40.1146 39.794 40.4152 39.9816 40.6963 40.0072C40.8361 40.0199 40.9549 39.9907 41.0339 39.9356C41.1067 39.8846 41.1586 39.8033 41.1586 39.6716C41.1586 39.1357 40.9175 39.0259 40.8832 39.019C40.7953 39.0015 40.7382 38.9159 40.7558 38.828C40.7734 38.7401 40.8589 38.683 40.9469 38.7006C41.1832 38.7479 41.4833 39.0386 41.4833 39.6716C41.4833 39.9053 41.3829 40.0878 41.2199 40.2017C41.0629 40.3115 40.8621 40.3483 40.6669 40.3306C40.2783 40.2952 39.8483 40.0364 39.7042 39.5559C39.6329 39.3183 39.647 39.0714 39.6872 38.8465C39.7188 38.6696 39.7691 38.4944 39.8128 38.3421C39.8243 38.3023 39.8352 38.2641 39.8453 38.2278C39.8704 38.1375 39.8899 38.0597 39.9008 37.9928C39.9119 37.9244 39.9117 37.8798 39.9061 37.8522C39.9017 37.8307 39.896 37.827 39.8924 37.8246C39.8923 37.8246 39.8922 37.8245 39.8921 37.8244C39.8831 37.8184 39.8532 37.8045 39.7785 37.8045C39.7097 37.8045 39.6882 37.8198 39.684 37.8233C39.6806 37.8261 39.67 37.8361 39.6632 37.8754C39.6561 37.9167 39.6562 37.9729 39.6621 38.049C39.6656 38.0937 39.6698 38.1324 39.6742 38.1741C39.6782 38.211 39.6824 38.2501 39.6866 38.2976C39.7018 38.4705 39.7102 38.6898 39.6155 38.8792C39.5128 39.0846 39.3101 39.2183 38.9897 39.2641C38.7146 39.3034 38.4949 39.2239 38.339 39.0534C38.1918 38.8924 38.1165 38.6666 38.0798 38.4369C38.0062 37.9757 38.0756 37.413 38.1588 37.0386C38.1782 36.9511 38.265 36.8959 38.3525 36.9154Z" fill="white"/>
<path fill-rule="evenodd" clip-rule="evenodd" d="M48.2272 42.4572C48.3029 42.5053 48.3252 42.6057 48.277 42.6813C48.1901 42.8179 48.107 43.0172 48.1096 43.1821C48.1109 43.2603 48.1311 43.3213 48.1697 43.3678C48.2083 43.4141 48.2795 43.4631 48.4155 43.4903C48.5596 43.5191 48.6484 43.5084 48.701 43.4888C48.7492 43.4708 48.7773 43.4416 48.796 43.4034C48.8403 43.3132 48.8326 43.1672 48.7964 43.0467C48.7707 42.9608 48.8194 42.8703 48.9053 42.8445C48.9912 42.8188 49.0817 42.8675 49.1075 42.9534C49.1525 43.1035 49.1853 43.3472 49.0875 43.5465C49.0352 43.6531 48.9466 43.7437 48.8146 43.793C48.687 43.8406 48.5324 43.8448 48.3518 43.8087C48.1629 43.7709 48.0177 43.6928 47.9202 43.5755C47.8227 43.4584 47.787 43.3196 47.7849 43.1873C47.7808 42.9315 47.9006 42.6681 48.0031 42.507C48.0512 42.4313 48.1516 42.409 48.2272 42.4572Z" fill="white"/>
<path fill-rule="evenodd" clip-rule="evenodd" d="M42.9822 42.0843C43.0396 42.0154 43.142 42.0061 43.2109 42.0635C43.4771 42.2854 43.6816 42.5985 43.7519 42.8911C43.7871 43.0379 43.7916 43.1932 43.7377 43.3317C43.6812 43.4768 43.5669 43.5861 43.4018 43.6412C43.1976 43.7092 43.0211 43.7094 42.8877 43.6094C42.7651 43.5174 42.7254 43.3713 42.7049 43.2788C42.6992 43.2535 42.6944 43.2286 42.6901 43.2064L42.6893 43.2019C42.686 43.1849 42.6831 43.1698 42.6802 43.1557C42.6685 43.1656 42.6628 43.1741 42.6596 43.1803C42.6541 43.1908 42.6494 43.2069 42.649 43.2345C42.6486 43.2634 42.6529 43.2981 42.6611 43.3435C42.6636 43.3569 42.6668 43.3733 42.6702 43.3909C42.6766 43.4235 42.6839 43.4605 42.6889 43.4923C42.7052 43.5956 42.7173 43.7427 42.6303 43.8763C42.5431 44.0103 42.3844 44.0895 42.1646 44.1334C41.9632 44.1737 41.7893 44.1368 41.6519 44.033C41.5203 43.9337 41.4398 43.7865 41.3902 43.638C41.2915 43.3428 41.2937 42.9789 41.3221 42.7375C41.3325 42.6485 41.4132 42.5848 41.5023 42.5953C41.5913 42.6057 41.655 42.6864 41.6446 42.7755C41.6188 42.9942 41.621 43.304 41.6982 43.5351C41.7365 43.6498 41.788 43.7289 41.8475 43.7739C41.9011 43.8143 41.9776 43.8397 42.1009 43.815C42.2871 43.7778 42.3414 43.725 42.3582 43.6992C42.3752 43.673 42.3823 43.6323 42.3681 43.5429C42.3637 43.5151 42.359 43.4913 42.3537 43.4646C42.35 43.4457 42.346 43.4255 42.3416 43.4015C42.3324 43.3508 42.3234 43.2911 42.3243 43.2299C42.3252 43.1674 42.3363 43.0978 42.3717 43.03C42.4078 42.9611 42.4633 42.9046 42.5363 42.8608C42.5966 42.8246 42.672 42.7915 42.7536 42.7995C42.8508 42.809 42.911 42.8703 42.9435 42.9271C42.9721 42.9772 42.9863 43.0349 42.9954 43.0769C42.9999 43.0978 43.0041 43.1196 43.008 43.1397C43.0083 43.1415 43.0087 43.1433 43.009 43.145C43.0133 43.1673 43.0174 43.1881 43.0219 43.2084C43.0419 43.2985 43.0631 43.3351 43.0826 43.3496C43.0913 43.3562 43.138 43.3868 43.2991 43.3331C43.3776 43.3069 43.4155 43.2641 43.4351 43.2138C43.4572 43.157 43.4618 43.0739 43.4361 42.9669C43.3846 42.7521 43.2238 42.497 43.003 42.313C42.9341 42.2556 42.9248 42.1532 42.9822 42.0843Z" fill="white"/>
<path fill-rule="evenodd" clip-rule="evenodd" d="M39.7487 48.3663C39.8337 48.3947 39.8797 48.4866 39.8513 48.5717C39.746 48.8878 39.6289 49.3706 39.6161 49.7917C39.6096 50.0031 39.6299 50.1857 39.6816 50.321C39.7315 50.4517 39.8049 50.5263 39.9063 50.5567C40.0436 50.5979 40.1335 50.5889 40.1925 50.5658C40.2512 50.5429 40.2991 50.4983 40.3377 50.4307C40.4195 50.2877 40.4408 50.0738 40.4284 49.9129C40.4216 49.8235 40.4885 49.7454 40.5779 49.7385C40.6673 49.7317 40.7453 49.7986 40.7522 49.888C40.7669 50.0788 40.7476 50.3682 40.6196 50.5919C40.5534 50.7077 40.4541 50.8122 40.3107 50.8683C40.1676 50.9242 40.0005 50.924 39.813 50.8677C39.5897 50.8007 39.4534 50.6338 39.3782 50.4368C39.3047 50.2443 39.2844 50.0129 39.2915 49.7818C39.3057 49.3181 39.4322 48.8024 39.5433 48.469C39.5716 48.3839 39.6636 48.338 39.7487 48.3663Z" fill="white"/>
<path fill-rule="evenodd" clip-rule="evenodd" d="M48.5923 22.1934L59.6253 30.2786L59.3029 30.4655C58.3896 30.9949 56.8314 32.1341 55.3168 33.6575C53.8021 35.1809 52.3486 37.0709 51.6182 39.1005C51.4824 39.5288 51.5678 39.928 51.8049 40.2469C52.0459 40.5711 52.4519 40.8215 52.963 40.9136C53.9742 41.0958 55.4088 40.6511 56.626 38.8841L56.7558 38.6958L58.377 39.6685L58.254 39.8768C57.7085 40.7999 56.6493 41.9946 55.2309 42.5645C53.8531 43.1181 52.167 43.0688 50.3467 41.6821C50.2783 41.898 50.2103 42.2324 50.1836 42.7014C50.1424 43.4244 50.2006 44.4442 50.4891 45.7904C50.8578 47.5112 50.6204 48.5317 50.0529 49.0109C49.4779 49.4964 48.6945 49.3244 48.2316 48.9541C47.7408 48.5615 47.6328 48.0029 47.6328 47.5057C47.6328 47.2565 47.6599 47.0104 47.6852 46.7948C47.6874 46.7763 47.6895 46.7582 47.6916 46.7403C47.6943 46.7177 47.697 46.6955 47.6995 46.6737C47.5477 46.9839 47.3088 47.2908 47.0042 47.5649C46.5802 47.9466 45.985 48.1437 45.4508 48.3207C45.4154 48.3325 45.3803 48.3441 45.3454 48.3557C44.7555 48.5524 44.2526 48.739 43.9375 49.0893C43.6467 49.4123 43.634 49.8213 43.6647 50.3324C43.6673 50.3763 43.6703 50.4211 43.6733 50.4667C43.6869 50.6736 43.7015 50.8954 43.6915 51.1069C43.679 51.3699 43.6284 51.6427 43.4782 51.893C43.2078 52.3436 42.7931 52.6071 42.3825 52.5123C41.9595 52.4147 41.7269 51.9845 41.7269 51.4429C41.7269 51.2448 41.6696 51.1415 41.6232 51.0951C41.5794 51.0512 41.5284 51.0393 41.4773 51.0511C41.3842 51.0726 41.1663 51.2352 41.2374 51.7332C41.3254 52.3493 41.1993 52.7988 40.9189 53.0926C40.6444 53.3802 40.2655 53.4724 39.9411 53.4724C39.8079 53.4724 39.6396 53.4699 39.4705 53.4292C39.7858 53.9657 39.7792 54.5623 39.5612 55.0099C39.3305 55.4836 38.8397 55.8157 38.2533 55.6557C37.6662 55.4956 37.4317 54.964 37.3657 54.4687C37.2999 53.9754 37.3843 53.4355 37.5158 53.0765C37.516 53.0737 37.5163 53.07 37.5164 53.0652C37.5171 53.0435 37.5163 53.0109 37.5129 52.9655C37.5061 52.875 37.4904 52.7503 37.4656 52.5922C37.416 52.277 37.3328 51.8457 37.2227 51.3235C37.0025 50.28 36.6775 48.886 36.3069 47.3581C35.5659 44.303 34.6449 40.7205 34.0228 38.3536L34.0087 38.3001L36.4012 25.8424L48.5923 22.1934ZM36.8239 26.2244L34.5079 38.2833C35.1303 40.6522 36.0439 44.2071 36.7803 47.2433C37.1512 48.7725 37.4776 50.1722 37.6993 51.2229C37.81 51.7479 37.8952 52.1889 37.9467 52.5166C37.9724 52.68 37.9904 52.8195 37.9986 52.9291C38.0027 52.9837 38.0047 53.0351 38.0032 53.0805C38.002 53.1199 37.9979 53.1781 37.9772 53.2332C37.8682 53.5238 37.7934 53.9908 37.8485 54.4043C37.9042 54.8222 38.0757 55.1024 38.3815 55.1858C38.6881 55.2694 38.9685 55.1144 39.1233 54.7966C39.2784 54.4784 39.2843 54.0224 39.0077 53.6075C38.4243 52.7324 38.644 51.7371 38.827 51.3408L39.2873 51.4885C39.1266 52.3326 39.2302 52.6781 39.3475 52.8201C39.4592 52.9553 39.6466 52.9854 39.9411 52.9854C40.1849 52.9854 40.4148 52.9153 40.5665 52.7563C40.7122 52.6037 40.8296 52.3226 40.7552 51.8021C40.664 51.1636 40.9331 50.6768 41.3677 50.5765C41.5804 50.5274 41.8035 50.5865 41.9676 50.7507C42.1293 50.9123 42.214 51.1539 42.214 51.4429C42.214 51.8756 42.3873 52.0136 42.492 52.0377C42.6091 52.0647 42.8438 52.0036 43.0605 51.6424C43.1539 51.4867 43.1946 51.3029 43.2049 51.0839C43.2135 50.9026 43.2013 50.7149 43.1879 50.5097C43.1847 50.4613 43.1815 50.412 43.1785 50.3616C43.1482 49.858 43.1355 49.2522 43.5754 48.7634C43.9909 48.3018 44.6245 48.0826 45.1914 47.8936C45.215 47.8858 45.2385 47.8779 45.2619 47.8702C45.83 47.6811 46.333 47.5138 46.6784 47.2029C46.9818 46.9298 47.1941 46.634 47.3061 46.3617C47.419 46.0873 47.4218 45.8598 47.3494 45.6968L47.1009 45.1378L47.6656 45.3731C47.6829 45.3803 47.7009 45.3877 47.7193 45.3951C47.7751 45.4179 47.8336 45.4418 47.8813 45.4656C47.9511 45.5005 48.0287 45.5494 48.0909 45.6316C48.1529 45.7136 48.1836 45.8073 48.2002 45.9049C48.2164 46.0004 48.2214 46.114 48.2214 46.2474C48.2214 46.4104 48.1986 46.6025 48.1761 46.7915C48.1737 46.8116 48.1713 46.8317 48.169 46.8517C48.1436 47.0674 48.1199 47.2881 48.1199 47.5057C48.1199 47.942 48.2148 48.3169 48.5359 48.5738C48.8848 48.8529 49.4003 48.9245 49.7386 48.6388C50.0844 48.3468 50.3747 47.5813 50.0128 45.8925C49.7168 44.5111 49.6532 43.4472 49.6973 42.6737C49.7408 41.9109 49.8904 41.4059 50.0461 41.1637L50.1944 40.933L50.4059 41.1074C52.1918 42.58 53.7827 42.6215 55.0493 42.1125C56.2379 41.6349 57.1693 40.66 57.707 39.8345L56.8945 39.347C55.6195 41.0842 54.0761 41.6091 52.8766 41.393C52.2613 41.2821 51.7388 40.9744 51.414 40.5375C51.0861 40.0964 50.9683 39.533 51.1555 38.9481L51.1568 38.944L51.1583 38.9399C51.9221 36.8146 53.4307 34.8637 54.9714 33.3141C56.3534 31.9241 57.7755 30.8428 58.7424 30.2355L48.4999 22.7295L36.8239 26.2244Z" fill="white"/>
<path d="M40.1845 26.5203C44.276 24.3772 50.1697 25.7897 52.6051 26.7639C54.3098 27.4458 56.6641 29.7676 57.4759 30.1735C58.2877 30.5794 61.2102 30.6606 61.3725 26.7639C61.5349 22.8672 58.6936 21.0002 54.0663 19.6201C49.439 18.24 43.2693 17.8341 38.8856 19.6201C34.5018 21.4061 34.2583 24.6533 34.6642 26.1145C35.0701 27.5758 35.0701 29.1993 40.1845 26.5203Z" fill="black"/>
<path d="M35.963 27.9818C35.2486 27.9818 34.8535 26.9535 34.7453 26.4393C34.8806 26.2769 35.3136 26.0008 35.963 26.1958C36.7748 26.4395 39.3726 24.4099 41.3209 24.1664C43.2693 23.9228 45.38 23.5981 49.6825 24.4099C53.9851 25.2217 58.45 29.849 59.5054 29.4431C60.3497 29.1184 61.0478 27.7924 61.2914 27.1701V27.6571L60.8043 29.1996L59.5054 30.0926L58.2877 30.3361L57.3947 30.0926L54.4722 27.9819C54.364 27.7653 53.4168 27.0888 50.4943 26.1146C46.8412 24.8969 42.0516 25.384 40.7527 26.1958C39.4538 27.0076 36.856 27.9818 35.963 27.9818Z" fill="black"/>
<path fill-rule="evenodd" clip-rule="evenodd" d="M53.9967 19.8535C49.3982 18.482 43.2904 18.0885 38.9775 19.8456C36.8352 20.7185 35.7292 21.9364 35.2002 23.0906C34.6683 24.2512 34.7098 25.3687 34.8989 26.0494C34.9294 26.1591 34.9566 26.2649 34.9828 26.3669C35.0497 26.627 35.1102 26.8621 35.2022 27.0742C35.3235 27.3537 35.4817 27.5455 35.7427 27.6414C36.0176 27.7425 36.4505 27.7542 37.1562 27.558C37.8579 27.3629 38.7995 26.9709 40.0715 26.3046C42.1761 25.2022 44.7262 25.0215 47.0378 25.2306C49.3525 25.4399 51.4578 26.0427 52.6956 26.5378C53.5859 26.8939 54.627 27.6677 55.5267 28.3814C55.7606 28.5669 55.9776 28.7425 56.1826 28.9083C56.3863 29.0731 56.5781 29.2283 56.763 29.3743C57.1287 29.663 57.4083 29.8674 57.5848 29.9557C57.7468 30.0367 58.0432 30.1129 58.4068 30.1164C58.7664 30.1199 59.1743 30.052 59.5609 29.8633C60.3155 29.495 61.0509 28.634 61.1292 26.7538C61.2074 24.8784 60.5675 23.5081 59.3539 22.4304C58.1264 21.3404 56.3015 20.5409 53.9967 19.8535ZM38.7937 19.3946C43.2483 17.5797 49.4799 17.9981 54.1359 19.3867C56.4585 20.0794 58.3678 20.9034 59.6773 22.0662C61.0005 23.2412 61.7001 24.7527 61.6159 26.774C61.5319 28.7905 60.7249 29.8372 59.7746 30.301C59.3088 30.5284 58.8238 30.6076 58.402 30.6035C57.9842 30.5994 57.6109 30.5133 57.367 30.3913C57.1376 30.2767 56.8185 30.0387 56.4612 29.7566C56.2848 29.6173 56.0843 29.4552 55.8732 29.2846C55.6629 29.1145 55.442 28.9359 55.224 28.763C54.3175 28.0438 53.3291 27.3158 52.5147 26.99C51.3171 26.511 49.2578 25.9204 46.9939 25.7157C44.7269 25.5107 42.2845 25.6953 40.2975 26.7361C39.0123 27.4093 38.036 27.819 37.2866 28.0273C36.5412 28.2345 35.9898 28.2512 35.5747 28.0986C35.1456 27.9409 34.9081 27.6202 34.7554 27.2681C34.6468 27.0178 34.5719 26.7262 34.5016 26.453C34.4774 26.3589 34.4538 26.267 34.4296 26.1797C34.2127 25.3991 34.1731 24.1624 34.7574 22.8876C35.3447 21.6063 36.5523 20.3077 38.7937 19.3946Z" fill="white"/>
<path fill-rule="evenodd" clip-rule="evenodd" d="M58.7266 25.6176C59.3634 25.6509 59.981 25.9366 60.323 26.2631L59.9867 26.6154C59.7334 26.3737 59.2279 26.1316 58.7011 26.104C58.1894 26.0772 57.6846 26.2514 57.3614 26.8055C57.1014 27.2513 57.0537 27.6222 57.1133 27.9169C57.1734 28.2141 57.3485 28.4638 57.587 28.6537C57.8268 28.8446 58.122 28.9676 58.3988 29.0108C58.6817 29.0549 58.9089 29.0113 59.041 28.9188C59.4029 28.6655 59.4932 28.3855 59.469 28.1564C59.4433 27.9121 59.2825 27.6773 59.0554 27.541C59.0172 27.5181 58.948 27.5026 58.853 27.518C58.7601 27.5331 58.6655 27.5745 58.5932 27.6331C58.5212 27.6913 58.4834 27.7559 58.4736 27.8163C58.4646 27.8721 58.4736 27.959 58.5638 28.0792L58.174 28.3714C58.0207 28.1668 57.9587 27.9492 57.9928 27.7385C58.0261 27.5326 58.1455 27.3688 58.2867 27.2545C58.4275 27.1405 58.6017 27.0653 58.7752 27.0372C58.9465 27.0094 59.1412 27.0244 59.306 27.1233C59.6471 27.328 59.9096 27.6899 59.9534 28.1054C59.9988 28.5361 59.805 28.9786 59.3203 29.3178C59.0466 29.5094 58.6751 29.5469 58.3237 29.492C57.9664 29.4363 57.5918 29.2802 57.2836 29.0347C56.9741 28.7883 56.723 28.4444 56.6359 28.0135C56.5483 27.5802 56.6325 27.0885 56.9407 26.5601C57.3752 25.8152 58.0747 25.5835 58.7266 25.6176Z" fill="white"/>
<path fill-rule="evenodd" clip-rule="evenodd" d="M60.4876 24.8232C61.054 25.2208 61.4483 25.7213 61.5904 26.0055L61.1547 26.2234C61.0533 26.0206 60.717 25.5793 60.2077 25.2218C59.7034 24.8678 59.0563 24.6144 58.3262 24.7313C56.5775 25.0114 55.9335 26.2205 55.9335 27.0888C55.9334 27.9419 56.0861 28.4733 56.3948 29.0905L55.9592 29.3084C55.6185 28.6271 55.4463 28.0215 55.4464 27.0887C55.4464 25.9818 56.2637 24.5683 58.2492 24.2504C59.1427 24.1073 59.9163 24.4222 60.4876 24.8232Z" fill="white"/>
<path fill-rule="evenodd" clip-rule="evenodd" d="M49.2358 38.5624C49.3104 38.6743 49.2802 38.8255 49.1683 38.9001C48.8318 39.1244 48.2543 39.4565 47.6022 39.7335C46.9544 40.0085 46.2082 40.2399 45.5424 40.2399C44.2583 40.2399 43.2026 39.7916 42.817 39.5543C42.7024 39.4839 42.6667 39.3338 42.7372 39.2193C42.8077 39.1047 42.9577 39.069 43.0723 39.1395C43.3902 39.3352 44.3586 39.7528 45.5424 39.7528C46.1106 39.7528 46.785 39.5513 47.4118 39.2851C48.0342 39.0208 48.5851 38.7035 48.8981 38.4948C49.01 38.4202 49.1612 38.4505 49.2358 38.5624Z" fill="white"/>
<path fill-rule="evenodd" clip-rule="evenodd" d="M48.8181 37.3191C48.9517 37.3348 49.0472 37.4558 49.0315 37.5894C48.9884 37.9561 49.1602 38.9352 50.3598 39.535C50.4801 39.5951 50.5289 39.7414 50.4687 39.8617C50.4086 39.982 50.2623 40.0308 50.142 39.9707C48.7438 39.2716 48.4827 38.0858 48.5478 37.5325C48.5635 37.3989 48.6845 37.3034 48.8181 37.3191Z" fill="white"/>
<path d="M56.4206 38.6974C55.901 37.983 56.637 37.3714 57.07 37.155C56.2582 35.6938 57.7194 34.7195 58.1253 34.2324C58.9371 33.2583 59.343 32.3653 59.8301 32.6088C60.5026 32.945 60.1549 34.2324 59.8301 34.3948C59.5704 34.5247 59.2619 34.7195 58.9371 34.963C61.2102 33.9888 61.6161 33.9076 62.915 33.9076C64.3762 33.9076 64.4574 34.7195 63.5644 34.8818C62.8501 35.0117 62.1303 35.2607 61.8597 35.3689C62.7526 35.0442 63.5644 34.963 64.8633 34.963C66.1622 34.963 66.5681 36.1807 65.1069 36.1807C64.2843 36.1807 63.467 36.2343 62.904 36.285C64.795 36.1494 64.8633 36.8571 64.8633 37.155C64.8633 37.4797 64.4574 37.8044 63.5644 37.8856C62.8501 37.9505 60.8855 38.4539 59.9925 38.6974C59.8572 38.9139 59.4567 39.4118 58.9371 39.6716C58.2877 39.9963 57.07 39.5904 56.4206 38.6974Z" fill="black"/>
<path fill-rule="evenodd" clip-rule="evenodd" d="M59.3563 32.4088C59.5341 32.3123 59.7354 32.2892 59.939 32.391C60.4207 32.6318 60.4923 33.1859 60.4461 33.5944C60.4243 33.7869 60.3749 33.9755 60.3088 34.1366C60.6657 34.0016 60.9612 33.9041 61.2303 33.8343C61.8084 33.6844 62.2592 33.6641 62.915 33.6641C63.3006 33.6641 63.6121 33.7174 63.848 33.8105C64.0787 33.9017 64.2671 34.044 64.348 34.2417C64.418 34.4129 64.3912 34.5844 64.3026 34.7256C64.4802 34.7213 64.6665 34.7195 64.8633 34.7195C65.2254 34.7195 65.5373 34.8043 65.7766 34.9424C66.0118 35.0781 66.1934 35.2762 66.2555 35.5091C66.3222 35.7592 66.2391 36.0108 66.0172 36.1829C65.8099 36.3437 65.499 36.4243 65.1069 36.4243C65.0092 36.4243 64.9115 36.4251 64.8144 36.4265C65.0875 36.682 65.1069 36.9922 65.1069 37.155C65.1069 37.4304 64.9334 37.66 64.677 37.8187C64.4206 37.9774 64.055 38.0856 63.5865 38.1282C63.2497 38.1588 62.5972 38.2963 61.9017 38.4615C61.2566 38.6147 60.5916 38.7876 60.1446 38.9085C59.9607 39.172 59.5614 39.6318 59.0461 39.8894C58.6371 40.0939 58.0937 40.0541 57.5944 39.8696C57.0871 39.6821 56.5793 39.3298 56.2236 38.8407C56.0664 38.6245 55.9948 38.4015 55.9985 38.1814C56.0021 37.9641 56.0787 37.7703 56.1833 37.6078C56.3329 37.3752 56.5508 37.1887 56.7508 37.0583C56.6093 36.7321 56.5648 36.4207 56.5929 36.1272C56.6269 35.773 56.7649 35.462 56.9365 35.1963C57.1075 34.9315 57.3168 34.7043 57.5022 34.5175C57.5717 34.4476 57.6349 34.3859 57.6917 34.3305C57.7958 34.229 57.8783 34.1485 57.9383 34.0766C58.1362 33.839 58.3101 33.6056 58.4696 33.3891C58.485 33.3682 58.5003 33.3474 58.5155 33.3268C58.6559 33.1361 58.7883 32.9561 58.9129 32.8075C59.0485 32.6459 59.1946 32.4965 59.3563 32.4088ZM62.8858 36.0422C62.7093 36.0548 62.5192 36.0745 62.3146 36.1018C62.1816 36.1195 62.088 36.2414 62.1052 36.3744C62.1224 36.5074 62.2439 36.6015 62.377 36.5849C62.5022 36.5692 62.6901 36.5488 62.9225 36.5279C63.759 36.4681 64.1811 36.582 64.3893 36.7121C64.606 36.8476 64.6198 37.0214 64.6198 37.155C64.6198 37.2043 64.5903 37.2995 64.4206 37.4046C64.2508 37.5097 63.9669 37.6045 63.5424 37.6431C63.1648 37.6774 62.4779 37.824 61.7892 37.9876C61.094 38.1527 60.3769 38.3402 59.9284 38.4625C59.8693 38.4786 59.8185 38.5164 59.786 38.5684C59.6641 38.7634 59.2932 39.2213 58.8282 39.4538C58.5878 39.574 58.1976 39.5732 57.7633 39.4127C57.337 39.2552 56.9112 38.9581 56.6175 38.5542C56.5149 38.4131 56.4838 38.2918 56.4855 38.1896C56.4872 38.0845 56.5243 37.978 56.5929 37.8713C56.7343 37.6514 56.9855 37.4696 57.1789 37.3728C57.2383 37.3431 57.283 37.2904 57.3027 37.227C57.3223 37.1635 57.3152 37.0948 57.2829 37.0367C57.102 36.7111 57.0537 36.4252 57.0778 36.1737C57.1022 35.919 57.2026 35.682 57.3456 35.4606C57.4892 35.2383 57.6705 35.0394 57.8479 34.8608C57.8996 34.8087 57.9534 34.7561 58.0063 34.7045C58.1235 34.5899 58.2365 34.4796 58.3125 34.3884C58.5204 34.1388 58.7017 33.8953 58.8618 33.678C58.8768 33.6576 58.8917 33.6374 58.9063 33.6176C59.0492 33.4234 59.1721 33.2565 59.2861 33.1206C59.4144 32.9676 59.5118 32.8786 59.5886 32.8369C59.6492 32.804 59.6814 32.8068 59.7213 32.8267C59.912 32.9221 60.0028 33.1798 59.9621 33.5397C59.9431 33.7073 59.8968 33.8691 59.8401 33.9936C59.8117 34.0558 59.783 34.104 59.7574 34.1374C59.7337 34.1684 59.72 34.1774 59.7201 34.1776C59.7201 34.1776 59.7205 34.1774 59.7212 34.177C59.4451 34.3151 59.124 34.5185 58.791 34.7682C58.6924 34.8422 58.6646 34.9782 58.7263 35.0849C58.788 35.1917 58.9198 35.2355 59.0331 35.1869C60.1717 34.6989 60.8251 34.4425 61.3525 34.3058C61.8703 34.1716 62.2719 34.1512 62.915 34.1512C63.26 34.1512 63.5066 34.1994 63.6691 34.2636C63.8367 34.3298 63.8867 34.4006 63.8972 34.4261C63.8973 34.4264 63.8975 34.4268 63.8976 34.4272C63.9009 34.4349 63.9083 34.4521 63.8696 34.4924C63.8216 34.5423 63.7132 34.6073 63.5209 34.6423C62.7861 34.7758 62.0502 35.0304 61.7692 35.1428C61.6457 35.1922 61.5847 35.3315 61.6321 35.4558C61.6796 35.5801 61.8179 35.6433 61.9429 35.5978C62.7965 35.2874 63.5751 35.2066 64.8633 35.2066C65.1507 35.2066 65.3767 35.274 65.5332 35.3643C65.6937 35.4569 65.7658 35.5631 65.7849 35.6347C65.7994 35.6891 65.7911 35.7419 65.7187 35.7981C65.6317 35.8656 65.4454 35.9372 65.1069 35.9372C64.2778 35.9372 63.455 35.991 62.8858 36.0422Z" fill="white"/>
<path fill-rule="evenodd" clip-rule="evenodd" d="M57.2649 37.885C57.0293 37.5886 56.8568 37.2878 56.7676 37.0947L57.2099 36.8906C57.2831 37.0493 57.4354 37.3167 57.6462 37.5818C57.8584 37.8487 58.1163 38.0959 58.3966 38.236C58.9836 38.5296 59.6833 38.5061 59.9489 38.4578L60.036 38.937C59.7062 38.997 58.8906 39.0276 58.1787 38.6717C57.8095 38.4871 57.4992 38.1796 57.2649 37.885Z" fill="white"/>
<path d="M46.7521 44.8238C46.5086 42.8755 45.0473 43.2814 43.7484 44.1744C42.6931 45.311 43.0178 46.8532 44.1544 47.2591C45.2909 47.6651 46.9957 46.7721 46.7521 44.8238Z" fill="black"/>
<path fill-rule="evenodd" clip-rule="evenodd" d="M43.909 44.3596C43.4423 44.8729 43.2922 45.4601 43.37 45.9528C43.4488 46.4517 43.7597 46.8596 44.2363 47.0298C44.7191 47.2022 45.3433 47.1018 45.8218 46.7317C46.2895 46.3699 46.6219 45.7452 46.5105 44.854C46.453 44.3941 46.3273 44.1065 46.1783 43.9339C46.0353 43.7682 45.8543 43.6889 45.6328 43.6768C45.167 43.6514 44.5448 43.926 43.909 44.3596ZM46.5471 43.6157C46.7813 43.8871 46.9295 44.2794 46.9938 44.7936C47.1259 45.8507 46.7277 46.6467 46.1198 47.117C45.5226 47.5789 44.7261 47.722 44.0725 47.4885C43.4125 47.2528 42.9928 46.6866 42.8889 46.0288C42.785 45.3709 42.9955 44.6274 43.57 44.0086L43.5883 43.9889L43.6105 43.9737C44.2657 43.5232 45.0144 43.1552 45.6593 43.1904C45.996 43.2088 46.3071 43.3375 46.5471 43.6157Z" fill="white"/>
<path d="M45.6968 44.5802C45.6968 44.8044 45.5877 44.9861 45.4532 44.9861C45.3187 44.9861 45.2097 44.8044 45.2097 44.5802C45.2097 44.356 45.3187 44.1743 45.4532 44.1743C45.5877 44.1743 45.6968 44.356 45.6968 44.5802Z" fill="white"/>
<path d="M46.1839 45.7979C46.1839 45.9772 46.0748 46.1226 45.9403 46.1226C45.8058 46.1226 45.6968 45.9772 45.6968 45.7979C45.6968 45.6186 45.8058 45.4732 45.9403 45.4732C46.0748 45.4732 46.1839 45.6186 46.1839 45.7979Z" fill="white"/>
<path d="M45.0473 45.9603C45.0473 46.2293 44.9383 46.4473 44.8038 46.4473C44.6693 46.4473 44.5602 46.2293 44.5602 45.9603C44.5602 45.6912 44.6693 45.4732 44.8038 45.4732C44.9383 45.4732 45.0473 45.6912 45.0473 45.9603Z" fill="white"/>
<path d="M28.1837 27.0213C30.5272 25.8512 32.6187 26.0274 33.3715 26.2617C34.0838 26.3978 36.1465 27.345 36.7212 29.7667C37.3188 32.285 36.1219 37.7032 36.1276 40.4954C36.1333 43.2875 37.6627 45.6902 37.9036 49.9115C38.1445 54.1328 36.2007 56.3799 35.238 56.4953C34.2752 56.6107 33.8733 56.4519 34.2312 54.6248C34.589 52.7976 34.1721 50.8704 32.0903 47.8113C30.0084 44.7521 27.1516 41.6239 25.3317 37.047C23.5118 32.4701 25.2542 28.4838 28.1837 27.0213Z" fill="white"/>
<path d="M30.3307 26.3273C32.147 25.8226 32.8148 27.994 31.736 28.7288C30.1421 30.0173 28.9721 29.039 28.0073 29.3775C25.7665 30.1638 26.7147 35.0741 27.5058 36.7876C28.2969 38.501 33.6104 47.8251 34.8871 50.7219C35.9085 53.0393 35.5674 55.5366 35.301 56.4028C34.5858 56.5825 34.1222 56.3922 34.1289 55.6477C34.1374 54.7171 34.7673 53.668 34.1666 51.4909C33.5659 49.3138 31.8775 47.3441 30.9891 46.0951C30.1008 44.8461 26.6591 41.2162 25.3922 37.2337C24.1253 33.2513 24.8593 30.9932 25.7417 29.4811C26.624 27.969 28.0603 26.9582 30.3307 26.3273Z" fill="white"/>
<path d="M30.3932 33.1219C30.3822 34.3383 29.3871 35.3155 28.1707 35.3044C26.9543 35.2934 25.9771 34.2984 25.9882 33.0819C25.9992 31.8655 26.9942 30.8883 28.2107 30.8994C29.4271 30.9104 30.4042 31.9054 30.3932 33.1219Z" fill="black"/>
<path d="M35.8529 33.1716C35.8419 34.3881 34.8468 35.3652 33.6304 35.3542C32.414 35.3432 31.4368 34.3481 31.4478 33.1317C31.4589 31.9153 32.4539 30.9381 33.6703 30.9491C34.8868 30.9602 35.8639 31.9552 35.8529 33.1716Z" fill="black"/>
<path d="M30.0829 33.119C30.0734 34.1641 29.2185 35.0036 28.1734 34.9942C27.1283 34.9847 26.2887 34.1298 26.2982 33.0847C26.3077 32.0396 27.1626 31.2001 28.2077 31.2095C29.2528 31.219 30.0923 32.0739 30.0829 33.119Z" fill="white"/>
<path d="M35.5426 33.1688C35.5331 34.2139 34.6782 35.0534 33.6331 35.0439C32.588 35.0345 31.7485 34.1796 31.758 33.1345C31.7674 32.0894 32.6223 31.2498 33.6674 31.2593C34.7125 31.2688 35.5521 32.1237 35.5426 33.1688Z" fill="white"/>
<path d="M30.086 32.7776L31.6371 32.7917L31.632 33.3501L30.0809 33.336L30.086 32.7776Z" fill="black"/>
<path d="M28.493 30.9641L29.0809 31.3106L27.0606 34.7379L26.4726 34.3913L28.493 30.9641Z" fill="black"/>
<path d="M33.9526 31.0135L34.5405 31.3601L32.5202 34.7874L31.9322 34.4408L33.9526 31.0135Z" fill="black"/>
<path d="M29.4539 31.4692L29.6046 31.5581L27.5842 34.9853L27.4335 34.8965L29.4539 31.4692Z" fill="black"/>
<path d="M34.9134 31.5184L35.0641 31.6072L33.0438 35.0345L32.893 34.9456L34.9134 31.5184Z" fill="black"/>
<path d="M27.5328 30.3968C28.3408 30.249 28.4643 30.3122 29.0839 30.4108C29.6726 30.5018 29.3355 30.0408 29.0895 29.7904C28.8436 29.54 28.0991 29.5332 27.7886 29.5614C27.4781 29.5896 26.7316 29.8 26.6366 30.0164C26.5416 30.2327 26.7249 30.5446 27.5328 30.3968Z" fill="black"/>
<path d="M33.1384 30.4478C33.9464 30.3 34.0699 30.3632 34.6895 30.4619C35.2781 30.5528 34.941 30.0918 34.6951 29.8414C34.4492 29.591 33.7047 29.5843 33.3942 29.6125C33.0837 29.6407 32.3372 29.8511 32.2422 30.0674C32.1471 30.2837 32.3304 30.5956 33.1384 30.4478Z" fill="black"/>
<path d="M28.199 35.6149C28.5454 35.7421 28.3385 36.2056 28.1917 36.4215C28.5296 36.7968 29.3015 37.2071 30.108 37.2144C30.9146 37.2218 31.7257 36.7327 31.8464 37.1061C31.9671 37.4795 30.7852 37.81 29.7307 37.7695C28.8872 37.737 28.1226 37.2068 27.8457 36.9457C27.5011 37.3149 26.9726 37.4342 26.8198 37.1846C26.6669 36.9351 27.1965 36.6917 27.5403 36.4155C27.8841 36.1394 27.7662 35.4558 28.199 35.6149Z" fill="black"/>
<path d="M32.3104 40.647C31.9986 39.682 31.9517 39.1546 31.6102 39.1825C31.1753 39.2407 31.4483 39.9256 31.5984 40.4854C31.7484 41.0452 32.0832 41.7617 32.8779 43.0719C33.6726 44.3821 34.7381 46.6254 35.1313 47.7458C35.5244 48.8662 35.4226 49.827 35.3891 50.1059C35.3555 50.3848 35.2901 50.7565 35.6003 50.7593C35.9105 50.7621 36.2283 49.9274 35.8422 48.0315C35.4561 46.1356 32.6423 41.6738 32.3104 40.647Z" fill="black"/>
<path fill-rule="evenodd" clip-rule="evenodd" d="M33.4169 26.081C32.6106 25.8341 30.4774 25.6681 28.1006 26.8548C25.0706 28.3676 23.3093 32.4644 25.1588 37.1158C26.5238 40.5486 28.4748 43.1816 30.2349 45.5568C30.8345 46.366 31.4119 47.1453 31.9364 47.916C34.004 50.9542 34.393 52.8303 34.0485 54.5891C33.9581 55.0508 33.9135 55.4174 33.9161 55.7058C33.9186 55.9917 33.9675 56.2233 34.0865 56.3947C34.2112 56.5743 34.3925 56.6596 34.5944 56.6924C34.7894 56.7241 35.0173 56.7093 35.2602 56.6802C35.557 56.6446 35.8944 56.4529 36.2216 56.1477C36.5531 55.8383 36.891 55.3969 37.1872 54.8293C37.7804 53.693 38.2117 52.042 38.0895 49.901C37.9678 47.7691 37.5205 46.0969 37.1067 44.6174C37.0875 44.5489 37.0685 44.4809 37.0495 44.4133C36.6577 43.0154 36.3164 41.7976 36.3137 40.495C36.3116 39.4452 36.4814 38.0198 36.6619 36.5049C36.7191 36.0255 36.7773 35.5372 36.8314 35.0489C36.9435 34.0384 37.0375 33.0319 37.0659 32.1186C37.0941 31.2077 37.0575 30.3774 36.9023 29.7238C36.6041 28.4669 35.9186 27.5912 35.2162 27.0134C34.5239 26.4439 33.8086 26.1584 33.4169 26.081ZM33.3162 26.4395C32.6091 26.2194 30.5673 26.0393 28.2669 27.1879C25.438 28.6002 23.7145 32.4759 25.5047 36.9783C26.8501 40.3617 28.7592 42.9384 30.5129 45.3054C31.1184 46.1226 31.7054 46.9148 32.2442 47.7066C34.3403 50.7867 34.7851 52.7651 34.4139 54.6606C34.3254 55.1124 34.2861 55.4508 34.2883 55.7025C34.2906 55.9566 34.3352 56.1001 34.3923 56.1824C34.4437 56.2564 34.521 56.3033 34.6541 56.325C34.7939 56.3477 34.9773 56.3391 35.2159 56.3105C35.4004 56.2884 35.667 56.1559 35.9676 55.8755C36.2637 55.5992 36.5773 55.1933 36.8572 54.6571C37.4165 53.5857 37.8366 52.0025 37.7178 49.9222C37.5986 47.8327 37.1607 46.1928 36.7482 44.7177C36.7275 44.6439 36.7069 44.5704 36.6864 44.4973C36.2985 43.1141 35.9443 41.8507 35.9415 40.4958C35.9393 39.4212 36.1132 37.962 36.2946 36.4408C36.3512 35.966 36.4085 35.485 36.4614 35.0079C36.5732 34 36.6659 33.0053 36.6938 32.1071C36.7217 31.2066 36.6838 30.4152 36.5401 29.8097C36.2637 28.6449 35.6305 27.8362 34.9797 27.3009C34.3251 26.7624 33.6596 26.5063 33.3366 26.4446L33.3262 26.4426L33.3162 26.4395Z" fill="white"/>
<path d="M30.3128 24.8691C30.9163 23.3234 30.3378 22.1082 28.8285 20.9157C27.8733 20.1935 28.0964 19.544 28.4396 19.33C28.7828 19.1159 30.1483 19.0662 31.3432 20.7213C32.5381 22.3764 31.8348 24.6657 31.7965 25.472C31.7581 26.2782 32.5904 26.8752 32.5825 27.7438C32.5746 28.6124 30.8964 28.9384 29.5052 28.3984C28.1141 27.8584 29.7094 26.4148 30.3128 24.8691Z" fill="white"/>
<path d="M30.3413 25.1484C30.9447 23.6027 30.3378 22.1078 28.8284 20.9152C28.6754 20.6967 28.18 20.4441 28.5845 20.4478C29.267 20.4541 30.0897 20.9267 30.7437 21.8324C31.9386 23.4874 31.1129 25.5897 30.7029 26.3305C30.312 27.0368 29.6372 27.5308 29.8515 27.843C30.4631 28.7337 31.3953 28.6638 29.6296 28.3683C28.1578 28.122 29.7378 26.6941 30.3413 25.1484Z" fill="black"/>
<path fill-rule="evenodd" clip-rule="evenodd" d="M29.6279 19.1469C30.2036 19.3279 30.8757 19.7555 31.4942 20.6121C32.1264 21.4879 32.2503 22.5226 32.2184 23.4213C32.2024 23.8719 32.147 24.2935 32.094 24.6495C32.0819 24.7309 32.0701 24.8081 32.0589 24.8809C32.0202 25.1334 31.9895 25.3338 31.9825 25.4806C31.9663 25.8209 32.1324 26.1243 32.3403 26.4929L32.3483 26.507C32.5448 26.8553 32.7731 27.26 32.7687 27.7453C32.7661 28.03 32.6242 28.2623 32.4104 28.4335C32.2 28.602 31.9156 28.7164 31.6003 28.7814C30.9692 28.9116 30.1654 28.8541 29.438 28.5717C29.0499 28.4211 28.8258 28.186 28.7759 27.8649C28.7298 27.5692 28.8413 27.2449 28.9936 26.9297C29.1172 26.6738 29.2821 26.3967 29.4501 26.1145C29.4921 26.0439 29.5343 25.973 29.5761 25.902C29.7883 25.5418 29.9945 25.1727 30.1395 24.8012C30.4265 24.0662 30.4282 23.4252 30.1902 22.8287C29.9495 22.2257 29.456 21.6486 28.7148 21.0627C28.2142 20.6838 27.9878 20.2977 27.9616 19.9458C27.9354 19.5923 28.1154 19.3126 28.3412 19.1718C28.464 19.0952 28.6489 19.0479 28.8616 19.0382C29.0792 19.0282 29.3411 19.0568 29.6279 19.1469ZM28.8786 19.41C28.7014 19.4181 28.587 19.4573 28.5382 19.4877C28.4207 19.5609 28.3177 19.713 28.3329 19.9183C28.3482 20.1248 28.4874 20.4241 28.9409 20.767L28.9425 20.7682L28.944 20.7694C29.7113 21.3756 30.2611 22.0021 30.5359 22.6907C30.8136 23.3864 30.8028 24.1259 30.4863 24.9366C30.3296 25.3379 30.1101 25.7289 29.8969 26.0909C29.8525 26.1663 29.8086 26.2401 29.7655 26.3125C29.5986 26.5931 29.4446 26.8518 29.3287 27.0916C29.1807 27.3981 29.1164 27.6325 29.1437 27.8077C29.167 27.9574 29.2652 28.1053 29.5727 28.2247C30.2364 28.4823 30.9674 28.5318 31.5251 28.4168C31.8042 28.3593 32.0278 28.263 32.1777 28.1429C32.3243 28.0256 32.3951 27.8914 32.3965 27.7419C32.3999 27.3652 32.2223 27.0415 32.016 26.6757C32.0119 26.6685 32.0078 26.6612 32.0037 26.6538C31.8098 26.3104 31.589 25.9191 31.6106 25.4629C31.6186 25.2946 31.6537 25.0667 31.6932 24.8097C31.7039 24.7399 31.7149 24.6681 31.7258 24.5947C31.7782 24.2429 31.8311 23.8376 31.8464 23.4081C31.8769 22.5468 31.755 21.6094 31.1923 20.83C30.6159 20.0316 30.0078 19.6566 29.5163 19.5021C29.2694 19.4245 29.051 19.4022 28.8786 19.41Z" fill="white"/>
<path d="M26.0351 39.0383L25.6292 38.2265L24.655 38.7948L24.4115 39.6878L25.0609 40.5808L25.2233 41.0679L25.6292 41.7985L25.8727 42.6915L26.7657 43.4221L28.6329 43.1786L29.5258 42.5291L29.6882 41.7985L28.9576 41.2302L29.2011 40.9055V40.0937L28.3893 39.6878L28.6329 39.2007L28.3893 38.3889L27.5775 38.2265L26.0351 39.0383Z" fill="black"/>
<path fill-rule="evenodd" clip-rule="evenodd" d="M25.7616 37.8302L26.1427 38.7448C26.5174 38.4928 27.0014 38.2243 27.4542 38.0958C27.7338 38.0165 28.0362 37.9804 28.3011 38.069C28.5881 38.1649 28.7883 38.3922 28.8699 38.7391C28.9773 39.1956 28.779 39.5878 28.4715 39.8866C28.1674 40.1822 27.734 40.4127 27.2855 40.5763C26.8342 40.7409 26.3478 40.8449 25.922 40.8758C25.7091 40.8912 25.5059 40.8888 25.3266 40.8642C25.1512 40.8401 24.9793 40.7921 24.8446 40.7023C24.4175 40.4176 24.2377 40.0475 24.1997 39.6935C24.1631 39.3514 24.2599 39.0405 24.356 38.8483C24.4623 38.6357 24.6603 38.4457 24.8657 38.2944C25.0756 38.1397 25.3171 38.008 25.5387 37.9193L25.7616 37.8302ZM25.1546 38.6865C24.9744 38.8194 24.8477 38.9541 24.7916 39.0662C24.7254 39.1987 24.6598 39.4155 24.6841 39.6417C24.707 39.8559 24.8113 40.0947 25.1148 40.2971C25.1628 40.329 25.2522 40.3623 25.3929 40.3816C25.5298 40.4004 25.6976 40.4037 25.8868 40.39C26.2652 40.3625 26.7073 40.2687 27.1186 40.1187C27.5326 39.9677 27.8958 39.7669 28.1321 39.5373C28.3649 39.311 28.4507 39.0842 28.3958 38.8507C28.3475 38.6456 28.2528 38.5664 28.1467 38.5309C28.0185 38.4881 27.8298 38.4956 27.5871 38.5644C27.1064 38.7008 26.5497 39.038 26.1812 39.3145L25.9307 39.5023L25.5014 38.472C25.3825 38.5336 25.263 38.6067 25.1546 38.6865Z" fill="white"/>
<path fill-rule="evenodd" clip-rule="evenodd" d="M29.2878 39.9405C29.3899 40.0922 29.4447 40.2794 29.4447 40.4996C29.4447 41.0633 29.0838 41.5168 28.5614 41.8169C28.0385 42.1173 27.3241 42.2856 26.5222 42.2856C25.8365 42.2856 25.406 42.0244 25.1734 41.6541C24.9518 41.3013 24.9357 40.8904 24.9835 40.6196L25.4631 40.7043C25.4297 40.8935 25.4462 41.1727 25.5858 41.395C25.7144 41.5996 25.9739 41.7985 26.5222 41.7985C27.2627 41.7985 27.8879 41.6421 28.3188 41.3945C28.7503 41.1466 28.9576 40.8289 28.9576 40.4996C28.9576 40.3626 28.9245 40.2731 28.8837 40.2124C28.8421 40.1506 28.782 40.103 28.7045 40.0677C28.5418 39.9937 28.3299 39.9871 28.1829 40.0097L28.1088 39.5283C28.3136 39.4968 28.6293 39.4983 28.9064 39.6245C29.0487 39.6893 29.1865 39.7898 29.2878 39.9405Z" fill="white"/>
<path fill-rule="evenodd" clip-rule="evenodd" d="M29.675 41.3701C29.8327 41.5421 29.8843 41.7407 29.9245 41.9018C30.0623 42.4528 29.518 43.4981 27.5166 43.6648C26.6786 43.7347 26.141 43.4881 25.836 43.0917C25.5426 42.7103 25.5035 42.2394 25.5507 41.9248L26.0324 41.997C25.9984 42.2235 26.0324 42.5482 26.222 42.7947C26.4001 43.0261 26.7555 43.2395 27.4761 43.1794C29.3714 43.0215 29.4766 42.1184 29.452 42.02C29.4111 41.8564 29.3815 41.7708 29.3159 41.6993C29.2504 41.6278 29.1208 41.5424 28.8174 41.4665L28.9355 40.994C29.2816 41.0805 29.5173 41.1981 29.675 41.3701Z" fill="white"/>
<path fill-rule="evenodd" clip-rule="evenodd" d="M0.162361 40.7527C1.16359 40.7798 3.65313 40.9638 5.60146 41.4833C7.5498 42.0029 11.4465 42.5658 13.1513 42.7822V39.535L7.63098 38.7232C7.71216 38.5338 7.93947 38.1549 8.19924 38.1549C8.52397 38.1549 8.19924 33.7712 5.11438 33.2841C2.02952 32.797 0 33.8524 0 37.0996C0 39.6974 0.108241 40.6174 0.162361 40.7527ZM2.59772 37.9115C3.43659 38.1821 5.24421 38.6746 5.76376 38.4797C6.41321 38.2362 6.25085 37.0997 5.76376 36.6126C5.67495 36.5238 5.59963 36.4295 5.52747 36.3393C5.20389 35.9345 4.94385 35.6093 3.81543 36.2067C2.43536 36.9373 2.11064 37.668 2.59772 37.9115Z" fill="white"/>
<path d="M7.14392 30.5239L8.60517 27.3579L16.2362 30.9298L15.0996 34.1771L7.14392 30.5239Z" fill="white"/>
<path d="M6.90039 26.5461C6.186 26.5461 4.87087 25.8425 4.30261 25.4907C3.52328 26.0103 2.73312 28.0344 2.43546 28.9815C2.82512 28.9165 4.87087 29.6039 5.84504 29.9557C6.49449 28.8191 7.61478 26.5461 6.90039 26.5461Z" fill="white"/>
<path d="M11.69 19.321C10.3262 20.0354 9.22757 22.3788 8.84872 23.4612L5.68268 21.4317L11.69 13.3948C12.3395 14.8561 14.1255 14.6937 14.369 15.8302C14.5638 16.7394 15.8032 21.567 16.3985 23.8671L17.3727 24.5166L21.107 19.8893L22.893 21.4317C21.724 21.5616 19.1045 26.1943 17.941 28.4944L14.369 26.6272L11.69 19.321Z" fill="white"/>
<path d="M18.5092 12.5018L16.0738 9.25458C17.2915 8.3616 19.938 6.49444 20.7823 6.16972C21.6265 5.845 23.5153 4.57317 24.3542 3.97784L25.8966 6.57562C25.6802 9.20046 25.2472 14.5476 25.2472 14.9372C25.2472 15.3269 25.8425 16.1279 26.1402 16.4797L31.0922 13.476L32.0664 15.4243C31.2221 15.5542 27.1685 18.5092 25.2472 19.9704C24.5707 19.2669 23.1203 17.6974 22.7306 17.0479C22.3409 16.3985 22.5682 12.0147 22.7306 9.90403L22.1623 9.49813L18.5092 12.5018Z" fill="white"/>
<path fill-rule="evenodd" clip-rule="evenodd" d="M32.9594 14.2878C33.8794 14.2066 35.7682 13.9955 35.9631 13.8007C36.1579 13.6059 36.0442 11.3382 35.9631 10.2288C37.0184 10.0393 39.2265 9.57931 39.6162 9.25459L40.8339 12.7454L43.7564 12.0147C43.6482 11.4465 43.3343 10.0177 42.9446 8.84869C42.4575 7.38744 40.5092 0.649445 40.5092 0C38.8044 0.216482 35.1837 0.71439 34.3394 0.974167C33.8276 1.13165 33.4495 1.30822 33.1494 1.44833C32.8307 1.59713 32.6002 1.70479 32.3911 1.70479L32.9594 14.2878ZM36.1254 8.11807C36.6666 8.11807 37.8951 8.06936 38.4796 7.87453C38.5258 7.85913 38.5694 7.84504 38.6104 7.83177C39.2186 7.63508 39.2658 7.61981 38.8855 6.25091C38.5608 5.08191 38.0467 4.14022 37.8302 3.81549L35.5571 5.11438C35.8277 5.92619 36.3202 7.66346 36.1254 8.11807Z" fill="white"/>
<path fill-rule="evenodd" clip-rule="evenodd" d="M54.9593 0.893005L51.1438 13.5572L54.391 14.1254C54.7428 12.7454 55.4626 9.83911 55.5276 9.25461C55.6087 8.52398 56.2582 8.76753 56.2582 9.01107C56.2582 9.25461 58.7748 10.2288 60.5608 8.68634C62.3467 7.14391 62.7526 3.49079 60.5608 2.1919C58.8072 1.15278 56.0958 0.893005 54.9593 0.893005ZM57.1512 4.3027C56.7453 4.9792 56.0309 6.42963 56.4206 6.81929C56.9077 7.30638 58.6936 7.46874 58.856 6.49457C59.0183 5.5204 58.7748 4.87096 58.3689 4.3027C57.963 3.73443 57.476 3.70973 57.1512 4.3027Z" fill="white"/>
<path d="M66.7305 5.11438L59.9925 15.8302C60.7718 15.8302 64.1056 17.8327 65.6751 18.8339L67.0552 16.7232C66.6655 16.3335 64.2951 15.3702 63.1585 14.9372C62.915 14.0442 64.1327 12.5018 65.1069 12.5018C65.8862 12.5018 67.2717 13.5301 67.867 14.0442L68.9224 12.7454C68.3 12.5289 66.9091 11.9498 66.3246 11.3653C65.7401 10.7808 66.5681 9.17341 67.0552 8.44279C67.315 8.44279 69.5447 9.95816 70.6272 10.7158L72.6567 8.28042C72.267 7.56603 68.5435 5.87207 66.7305 5.11438Z" fill="white"/>
<path d="M69.0035 22.9741L66.2434 19.7269C69.5718 17.2915 76.2773 12.4369 76.4722 12.5018C76.667 12.5668 78.2311 14.6396 78.9888 15.6679C78.5829 16.2903 77.7061 17.7948 77.4463 18.8339C77.1216 20.1328 76.1474 22.6494 75.9039 23.38C75.6604 24.1107 76.1474 24.273 76.7969 24.273C77.3164 24.273 80.5853 20.9717 82.1548 19.321L84.1843 22.9741C83.34 22.9741 77.6087 28.4403 74.8486 31.1734L72.332 27.5202C72.359 27.5202 72.4781 27.4391 72.7379 27.1143C73.0626 26.7084 72.6567 26.1402 72.9814 24.273C73.2412 22.7793 74.3885 20.3493 74.9297 19.321L74.2803 18.6716L69.0035 22.9741Z" fill="white"/>
<path d="M85.3208 20.7011L79.2323 12.5018L81.6677 10.8782L87.2692 18.9151L85.3208 20.7011Z" fill="white"/>
<path fill-rule="evenodd" clip-rule="evenodd" d="M86.7078 30.3991C85.4548 29.6591 84.4288 29.0532 81.0182 30.037C76.7968 31.2547 75.2544 35.8819 76.7156 38.5608C78.1769 41.2398 80.45 42.5387 84.7526 41.6457C89.0551 40.7527 89.6234 37.749 89.6234 35.3948C89.6234 33.5114 88.3245 31.6335 87.675 30.93C87.3164 30.7585 87.0057 30.575 86.7078 30.3991ZM83.129 32.8782C81.5865 32.8782 79.557 35.0701 80.45 36.2878C81.343 37.5055 82.4795 38.3985 83.7784 37.749C85.0773 37.0996 85.5644 35.2324 84.6714 34.1771C84.3667 33.817 84.2132 33.5514 84.1013 33.3577C83.8853 32.9839 83.8242 32.8782 83.129 32.8782Z" fill="white"/>
<path d="M3.5719 49.034C4.46489 47.0045 6.57558 47.8163 7.63093 48.3846C9.011 49.3587 9.011 52.7683 6.25086 53.3366C3.49072 53.9049 2.67891 51.0635 3.5719 49.034Z" fill="white"/>
<path d="M81.0401 49.034C81.9331 47.0045 84.0438 47.8163 85.0991 48.3846C86.4792 49.3587 86.4792 52.7683 83.7191 53.3366C80.9589 53.9049 80.1471 51.0635 81.0401 49.034Z" fill="white"/>
</svg>
