<svg width="118" height="41" viewBox="0 0 118 41" fill="none" xmlns="http://www.w3.org/2000/svg">
<path d="M50.1155 28.319C50.9578 28.9928 51.3088 30.0035 51.379 30.4247C48.6414 28.9507 47.7993 27.4767 47.5887 26.4238C47.4202 25.5815 48.08 25.2306 48.431 25.1604C48.2204 26.845 49.0627 27.4767 50.1155 28.319Z" fill="white"/>
<path d="M47.7997 24.3164C48.642 24.7375 48.4314 23.6847 49.0631 22.6318C49.5689 21.3685 51.3792 20.3154 52.432 19.6837C53.4849 19.052 56.0117 18.001 54.7483 16.527C53.4849 15.053 53.2743 14.8425 53.6955 13.3666C54.0838 12.0057 55.1695 7.68136 52.2215 9.78706C49.2735 11.8928 47.3785 17.3676 47.168 19.6839C46.9574 22.0001 46.9574 23.8953 47.7997 24.3164Z" fill="white"/>
<path d="M51.379 21.3703C49.0207 23.0548 48.8522 24.599 49.0628 25.1605C49.0627 24.5289 50.1157 23.4337 51.8003 23.2653C53.906 23.0547 57.4856 24.5287 59.3808 25.5815C61.2759 26.6344 61.9076 25.5815 61.697 24.5287C61.4865 23.4758 61.697 22.8442 62.9605 21.7914C64.2239 20.7385 64.0133 17.3694 60.2231 18.0011C56.4328 18.6328 54.327 19.2646 51.379 21.3703Z" fill="white"/>
<path d="M51.5905 28.74C49.9051 27.8978 49.274 26.0027 49.9057 25.1604C50.5374 24.5288 51.3798 24.1076 52.6433 24.1076C55.1701 24.1076 59.2591 26.0613 60.4344 26.8449C61.6978 27.6873 62.652 28.9834 61.4872 29.3717C60.2238 29.793 60.8555 30.214 60.0132 30.6352C59.1709 31.0563 54.1176 30.0029 51.5905 28.74Z" fill="white"/>
<path d="M45.9042 30.425C44.3881 30.425 43.3072 30.9865 42.9562 31.2673C45.6936 31.4778 49.0628 33.1624 51.379 34.2152C53.6953 35.2681 60.4336 39.4795 65.2767 39.4795C70.1198 39.4795 75.1735 36.1104 75.1735 29.7933C75.1735 24.7396 70.7515 22.0022 66.9612 21.581C67.7333 21.4407 69.2775 19.9807 69.2775 15.2639C69.2775 9.36797 64.645 6.63055 60.6441 6.63055C57.4435 6.63055 55.6606 7.89397 55.1693 8.52569C56.2222 7.89397 56.4327 7.05169 60.6441 7.05169C65.9084 7.05169 68.0141 11.8948 68.0141 15.2639C68.0141 17.9592 66.4699 20.5984 65.6978 21.581C69.4881 21.581 72.8572 26.003 72.8572 28.7404C72.8572 34.2152 70.3304 37.7949 65.2767 37.7949C60.8547 37.7949 57.9067 36.5315 55.1693 35.0575C52.4319 33.5835 49.2733 30.425 45.9042 30.425Z" fill="white"/>
<rect width="30.5292" height="1.26342" rx="0.63171" transform="matrix(-0.884189 0.46713 0.46713 0.884189 102.898 0)" fill="url(#paint0_linear_1834_843)"/>
<rect x="15.1016" width="30.5292" height="1.26342" rx="0.63171" transform="rotate(27.8482 15.1016 0)" fill="url(#paint1_linear_1834_843)"/>
<rect width="38.8747" height="1.26342" rx="0.63171" transform="matrix(-0.99574 0.0922076 0.0922076 0.99574 117.884 19.3378)" fill="url(#paint2_linear_1834_843)"/>
<rect x="0.116486" y="19.3378" width="38.8747" height="1.26342" rx="0.63171" transform="rotate(5.29062 0.116486 19.3378)" fill="url(#paint3_linear_1834_843)"/>
<rect width="28.9476" height="1.26342" rx="0.63171" transform="matrix(-0.965836 -0.259152 -0.259152 0.965836 109.145 39.401)" fill="url(#paint4_linear_1834_843)"/>
<rect x="8.85535" y="39.401" width="28.9476" height="1.26342" rx="0.63171" transform="rotate(-15.0198 8.85535 39.401)" fill="url(#paint5_linear_1834_843)"/>
<defs>
<linearGradient id="paint0_linear_1834_843" x1="0.207729" y1="0.606998" x2="30.4702" y2="0.572274" gradientUnits="userSpaceOnUse">
<stop stop-color="white"/>
<stop offset="1" stop-opacity="0"/>
</linearGradient>
<linearGradient id="paint1_linear_1834_843" x1="15.3093" y1="0.606998" x2="45.5718" y2="0.572274" gradientUnits="userSpaceOnUse">
<stop stop-color="white"/>
<stop offset="1" stop-opacity="0"/>
</linearGradient>
<linearGradient id="paint2_linear_1834_843" x1="0.264514" y1="0.606998" x2="38.7995" y2="0.550695" gradientUnits="userSpaceOnUse">
<stop stop-color="white"/>
<stop offset="1" stop-opacity="0"/>
</linearGradient>
<linearGradient id="paint3_linear_1834_843" x1="0.381" y1="19.9448" x2="38.916" y2="19.8885" gradientUnits="userSpaceOnUse">
<stop stop-color="white"/>
<stop offset="1" stop-opacity="0"/>
</linearGradient>
<linearGradient id="paint4_linear_1834_843" x1="0.196967" y1="0.606998" x2="28.8916" y2="0.575779" gradientUnits="userSpaceOnUse">
<stop stop-color="white"/>
<stop offset="1" stop-opacity="0"/>
</linearGradient>
<linearGradient id="paint5_linear_1834_843" x1="9.05231" y1="40.008" x2="37.7469" y2="39.9768" gradientUnits="userSpaceOnUse">
<stop stop-color="white"/>
<stop offset="1" stop-opacity="0"/>
</linearGradient>
</defs>
</svg>
